<svg width="330" height="321" viewBox="0 0 330 321" fill="none" xmlns="http://www.w3.org/2000/svg">
<rect width="330" height="321" rx="15" fill="#2A84FF"/>
<g clip-path="url(#clip0_168_110)">
<path d="M275.036 306.22L270.344 310.378L274.073 304.356C271.135 299.229 266.331 294.798 266.331 294.798C266.331 294.798 256.364 303.989 256.364 311.214C256.364 318.439 260.827 320.961 266.331 320.961C271.836 320.961 276.298 318.439 276.298 311.214C276.236 309.484 275.806 307.784 275.036 306.22Z" fill="#F0F0F0"/>
<path d="M269.138 310.603V310.959C269.116 315.098 268.39 318.328 266.967 320.602C266.947 320.636 266.925 320.667 266.905 320.701L266.746 320.608L266.594 320.516C268.172 318.06 268.731 314.589 268.751 310.978C268.753 310.862 268.755 310.744 268.753 310.626C268.748 309.097 268.651 307.551 268.495 306.049C268.484 305.932 268.471 305.814 268.458 305.696C268.242 303.715 267.931 301.821 267.612 300.176C267.59 300.06 267.566 299.944 267.542 299.829C266.991 297.047 266.429 295.032 266.301 294.586C266.286 294.531 266.277 294.501 266.275 294.494L266.449 294.447L266.451 294.445L266.627 294.397C266.628 294.404 266.66 294.505 266.711 294.692C266.907 295.39 267.416 297.285 267.916 299.785C267.938 299.898 267.962 300.014 267.984 300.13C268.244 301.465 268.498 302.957 268.7 304.522C268.751 304.915 268.797 305.303 268.837 305.686C268.852 305.804 268.865 305.922 268.876 306.038C269.044 307.662 269.132 309.183 269.138 310.603Z" fill="white"/>
<path d="M267.916 299.785C267.793 299.801 267.669 299.817 267.542 299.829C267.199 299.863 266.854 299.88 266.509 299.88C265.039 299.882 263.587 299.566 262.26 298.956C262.183 299.05 262.106 299.143 262.027 299.238C263.423 299.894 264.956 300.234 266.509 300.233C266.878 300.233 267.246 300.214 267.612 300.176C267.737 300.164 267.861 300.148 267.984 300.13C268.997 299.991 269.982 299.703 270.905 299.279C270.826 299.182 270.75 299.087 270.674 298.993C269.8 299.386 268.871 299.653 267.916 299.785Z" fill="white"/>
<path d="M268.837 305.686C268.711 305.693 268.585 305.696 268.458 305.696C268.42 305.698 268.38 305.698 268.341 305.698C266.748 305.698 265.178 305.327 263.766 304.617C262.354 303.907 261.141 302.879 260.231 301.62C260.157 301.724 260.084 301.828 260.013 301.934C260.961 303.208 262.212 304.245 263.66 304.961C265.108 305.677 266.713 306.05 268.341 306.051C268.392 306.051 268.444 306.051 268.495 306.049C268.623 306.047 268.75 306.043 268.876 306.038C270.832 305.942 272.717 305.305 274.307 304.205C274.248 304.101 274.19 303.997 274.129 303.893C272.584 304.973 270.745 305.596 268.837 305.686Z" fill="white"/>
<path d="M269.138 310.603C269.01 310.613 268.881 310.62 268.753 310.626C268.616 310.631 268.478 310.634 268.341 310.634C266.2 310.632 264.118 309.962 262.405 308.725C260.693 307.488 259.443 305.751 258.842 303.773C258.76 303.916 258.677 304.057 258.599 304.199C259.275 306.173 260.581 307.891 262.33 309.109C264.079 310.328 266.182 310.985 268.341 310.987C268.478 310.987 268.616 310.985 268.751 310.978C268.881 310.975 269.01 310.968 269.138 310.959C271.728 310.764 274.144 309.629 275.897 307.784C275.858 307.653 275.814 307.524 275.77 307.394C274.077 309.253 271.698 310.404 269.138 310.603Z" fill="white"/>
<path d="M235.806 150.048L236.003 146.444L237.007 150.451C240.432 151.444 244.345 151.406 244.345 151.406C244.345 151.406 244.609 143.598 241.523 140.56C238.437 137.522 235.484 138.228 233.169 140.406C230.855 142.584 230.057 145.411 233.143 148.448C233.908 149.151 234.814 149.695 235.806 150.048Z" fill="#F0F0F0"/>
<path d="M236.414 145.872L236.262 145.722C234.503 143.973 233.428 142.328 233.055 140.809C233.049 140.786 233.045 140.764 233.039 140.742L233.146 140.719L233.249 140.697C233.634 142.354 234.882 144.035 236.416 145.561C236.465 145.61 236.514 145.661 236.566 145.71C237.221 146.35 237.922 146.962 238.629 147.532C238.684 147.576 238.739 147.621 238.795 147.666C239.733 148.413 240.672 149.086 241.509 149.652C241.568 149.692 241.627 149.731 241.686 149.77C243.107 150.721 244.204 151.346 244.448 151.483C244.478 151.5 244.494 151.509 244.498 151.511L244.445 151.6V151.602L244.392 151.691C244.388 151.689 244.332 151.659 244.23 151.601C243.85 151.385 242.826 150.79 241.548 149.936C241.491 149.898 241.431 149.858 241.372 149.818C240.693 149.36 239.949 148.833 239.195 148.255C239.006 148.11 238.821 147.965 238.64 147.82C238.584 147.776 238.528 147.732 238.474 147.687C237.709 147.071 237.023 146.466 236.414 145.872Z" fill="white"/>
<path d="M241.548 149.936C241.593 149.881 241.638 149.825 241.686 149.77C241.816 149.62 241.954 149.476 242.099 149.34C242.716 148.757 243.462 148.315 244.28 148.047C244.272 147.977 244.265 147.907 244.257 147.836C243.39 148.113 242.6 148.576 241.948 149.191C241.793 149.337 241.647 149.491 241.509 149.652C241.462 149.706 241.416 149.762 241.372 149.818C241.006 150.278 240.714 150.788 240.507 151.332C240.582 151.342 240.655 151.351 240.726 151.361C240.926 150.85 241.203 150.37 241.548 149.936Z" fill="white"/>
<path d="M238.641 147.82C238.691 147.767 238.742 147.716 238.795 147.666C238.811 147.65 238.828 147.634 238.844 147.618C239.514 146.988 240.332 146.523 241.229 146.262C242.126 146.002 243.075 145.954 243.996 146.123C243.982 146.051 243.969 145.978 243.953 145.905C243.01 145.745 242.042 145.804 241.127 146.076C240.212 146.348 239.378 146.826 238.693 147.47C238.672 147.491 238.65 147.511 238.629 147.532C238.576 147.583 238.525 147.635 238.474 147.687C237.693 148.502 237.172 149.515 236.974 150.607C237.043 150.628 237.112 150.648 237.182 150.668C237.37 149.602 237.877 148.613 238.641 147.82Z" fill="white"/>
<path d="M236.414 145.872C236.463 145.816 236.514 145.763 236.566 145.71C236.621 145.653 236.677 145.597 236.735 145.543C237.636 144.697 238.798 144.154 240.046 143.997C241.295 143.839 242.562 144.075 243.66 144.669C243.633 144.576 243.608 144.484 243.58 144.393C242.453 143.831 241.17 143.626 239.914 143.805C238.658 143.985 237.493 144.541 236.585 145.395C236.527 145.449 236.47 145.504 236.416 145.561C236.363 145.614 236.312 145.667 236.262 145.722C235.256 146.829 234.725 148.262 234.776 149.732C234.848 149.771 234.922 149.808 234.996 149.845C234.914 148.394 235.422 146.968 236.414 145.872Z" fill="white"/>
<path d="M93.5317 176.833L93.7285 173.229L94.733 177.236C98.158 178.229 102.071 178.191 102.071 178.191C102.071 178.191 102.335 170.382 99.249 167.345C96.1629 164.307 93.2093 165.012 90.895 167.191C88.5807 169.369 87.7821 172.195 90.8681 175.233C91.6332 175.936 92.5397 176.48 93.5317 176.833Z" fill="#F0F0F0"/>
<path d="M94.1394 172.657L93.9873 172.507C92.2283 170.758 91.1537 169.113 90.7806 167.593C90.7748 167.571 90.7705 167.549 90.7646 167.527L90.8715 167.503L90.9746 167.482C91.3598 169.139 92.6077 170.82 94.1415 172.346C94.1904 172.395 94.2401 172.446 94.2913 172.495C94.9465 173.135 95.6477 173.747 96.3548 174.317C96.4091 174.361 96.465 174.406 96.5208 174.45C97.4581 175.198 98.3978 175.871 99.2344 176.436C99.2933 176.477 99.353 176.516 99.412 176.555C100.832 177.506 101.929 178.131 102.174 178.268C102.203 178.285 102.22 178.294 102.224 178.296L102.171 178.385V178.387L102.117 178.476C102.113 178.474 102.057 178.444 101.956 178.386C101.575 178.17 100.552 177.574 99.2737 176.721C99.2163 176.683 99.1566 176.643 99.0977 176.603C98.4182 176.145 97.6741 175.618 96.9207 175.04C96.7312 174.895 96.5463 174.75 96.3659 174.605C96.3093 174.561 96.2535 174.517 96.1992 174.472C95.4347 173.856 94.7481 173.251 94.1394 172.657Z" fill="white"/>
<path d="M99.2736 176.721C99.3184 176.666 99.364 176.61 99.4118 176.555C99.5416 176.405 99.6793 176.261 99.8243 176.125C100.442 175.542 101.187 175.1 102.006 174.831C101.998 174.762 101.99 174.692 101.983 174.621C101.116 174.897 100.326 175.361 99.6737 175.976C99.5189 176.122 99.3722 176.276 99.2342 176.436C99.1871 176.491 99.1415 176.547 99.0975 176.603C98.7313 177.062 98.4398 177.573 98.2329 178.117C98.3074 178.127 98.3804 178.136 98.4519 178.146C98.6514 177.635 98.9283 177.155 99.2736 176.721Z" fill="white"/>
<path d="M96.3661 174.605C96.4163 174.552 96.4679 174.5 96.521 174.45C96.5365 174.434 96.5534 174.419 96.5696 174.403C97.2394 173.773 98.0578 173.308 98.9548 173.047C99.8519 172.787 100.801 172.739 101.721 172.908C101.708 172.836 101.694 172.763 101.679 172.69C100.736 172.53 99.7671 172.589 98.8524 172.861C97.9377 173.133 97.1035 173.611 96.419 174.255C96.3974 174.275 96.3758 174.296 96.355 174.317C96.3019 174.368 96.2502 174.42 96.1994 174.472C95.4183 175.286 94.8975 176.3 94.6992 177.392C94.7683 177.412 94.8374 177.433 94.9072 177.453C95.0953 176.387 95.6023 175.397 96.3661 174.605Z" fill="white"/>
<path d="M94.1394 172.657C94.1888 172.601 94.2397 172.548 94.2913 172.495C94.3468 172.438 94.4031 172.382 94.4609 172.328C95.362 171.482 96.5237 170.939 97.772 170.782C99.0203 170.624 100.288 170.86 101.385 171.454C101.359 171.361 101.333 171.269 101.306 171.178C100.178 170.616 98.8955 170.411 97.6397 170.59C96.3839 170.77 95.2189 171.326 94.3102 172.18C94.2525 172.234 94.1955 172.289 94.1415 172.346C94.0883 172.399 94.0374 172.452 93.9873 172.507C92.9818 173.614 92.4508 175.047 92.5019 176.516C92.5738 176.556 92.6473 176.593 92.7215 176.63C92.6393 175.179 93.1479 173.753 94.1394 172.657Z" fill="white"/>
<path d="M117.287 131.103L117.484 127.498L118.488 131.505C121.913 132.499 125.826 132.461 125.826 132.461C125.826 132.461 126.09 124.652 123.004 121.614C119.918 118.577 116.965 119.282 114.65 121.46C112.336 123.639 111.537 126.465 114.624 129.503C115.389 130.206 116.295 130.75 117.287 131.103Z" fill="#F0F0F0"/>
<path d="M117.895 126.926L117.743 126.777C115.984 125.027 114.909 123.383 114.536 121.863C114.53 121.841 114.526 121.819 114.52 121.797L114.627 121.773L114.73 121.752C115.115 123.409 116.363 125.089 117.897 126.615C117.946 126.665 117.995 126.716 118.047 126.764C118.702 127.405 119.403 128.017 120.11 128.586C120.164 128.631 120.22 128.676 120.276 128.72C121.213 129.468 122.153 130.141 122.99 130.706C123.049 130.746 123.108 130.786 123.167 130.825C124.587 131.776 125.685 132.401 125.929 132.538C125.959 132.555 125.975 132.564 125.979 132.566L125.926 132.655V132.656L125.873 132.746C125.869 132.744 125.813 132.714 125.711 132.655C125.331 132.44 124.307 131.844 123.029 130.991C122.972 130.952 122.912 130.913 122.853 130.873C122.174 130.414 121.429 129.888 120.676 129.31C120.487 129.165 120.302 129.02 120.121 128.875C120.065 128.831 120.009 128.786 119.955 128.742C119.19 128.126 118.504 127.521 117.895 126.926Z" fill="white"/>
<path d="M123.029 130.991C123.074 130.936 123.12 130.88 123.168 130.825C123.297 130.675 123.435 130.531 123.58 130.394C124.198 129.812 124.943 129.37 125.761 129.101C125.754 129.031 125.746 128.962 125.739 128.891C124.872 129.167 124.082 129.631 123.43 130.246C123.275 130.392 123.128 130.545 122.99 130.706C122.943 130.761 122.897 130.817 122.853 130.873C122.487 131.332 122.196 131.843 121.989 132.387C122.063 132.396 122.136 132.406 122.208 132.415C122.407 131.904 122.684 131.424 123.029 130.991Z" fill="white"/>
<path d="M120.122 128.875C120.172 128.822 120.223 128.77 120.276 128.72C120.292 128.704 120.309 128.688 120.325 128.673C120.995 128.043 121.813 127.577 122.71 127.317C123.607 127.057 124.556 127.009 125.477 127.178C125.463 127.105 125.449 127.033 125.434 126.96C124.491 126.8 123.522 126.858 122.608 127.13C121.693 127.403 120.859 127.881 120.174 128.525C120.153 128.545 120.131 128.565 120.11 128.587C120.057 128.638 120.006 128.689 119.955 128.742C119.174 129.556 118.653 130.57 118.455 131.662C118.524 131.682 118.593 131.703 118.663 131.723C118.851 130.657 119.358 129.667 120.122 128.875Z" fill="white"/>
<path d="M117.895 126.926C117.944 126.871 117.995 126.817 118.047 126.764C118.102 126.708 118.158 126.652 118.216 126.598C119.117 125.751 120.279 125.209 121.527 125.051C122.776 124.894 124.043 125.13 125.141 125.724C125.114 125.631 125.089 125.539 125.061 125.448C123.934 124.886 122.651 124.68 121.395 124.86C120.139 125.04 118.974 125.596 118.066 126.449C118.008 126.504 117.951 126.559 117.897 126.615C117.844 126.668 117.793 126.722 117.743 126.777C116.737 127.883 116.206 129.317 116.257 130.786C116.329 130.826 116.403 130.862 116.477 130.9C116.395 129.448 116.903 128.023 117.895 126.926Z" fill="white"/>
<path d="M63.1657 295.098L55.0385 302.3L61.4974 291.869C56.4087 282.987 48.0863 275.31 48.0863 275.31C48.0863 275.31 30.8203 291.233 30.8203 303.749C30.8203 316.265 38.5505 320.635 48.0863 320.635C57.622 320.635 65.3522 316.265 65.3522 303.749C65.3522 300.963 64.4956 298.008 63.1657 295.098Z" fill="#F0F0F0"/>
<path d="M52.9482 302.69V303.307C52.9101 310.478 51.6536 316.073 49.1882 320.013C49.1533 320.071 49.1152 320.126 49.0803 320.184L48.8042 320.022L48.5409 319.863C51.276 315.609 52.2438 309.595 52.2787 303.34C52.2819 303.139 52.2851 302.934 52.2819 302.73C52.2724 300.082 52.1042 297.403 51.8345 294.801C51.8155 294.599 51.7932 294.395 51.771 294.19C51.3966 290.757 50.8572 287.477 50.3051 284.628C50.267 284.426 50.2258 284.225 50.1845 284.026C49.2294 279.207 48.2553 275.716 48.0332 274.943C48.0078 274.849 47.9919 274.797 47.9888 274.784L48.2902 274.702L48.2934 274.699L48.598 274.616C48.6012 274.629 48.6551 274.803 48.7439 275.126C49.0835 276.336 49.9656 279.619 50.8318 283.95C50.8699 284.145 50.9111 284.347 50.9492 284.548C51.3998 286.86 51.8409 289.444 52.1899 292.156C52.2787 292.837 52.3581 293.509 52.4279 294.172C52.4532 294.377 52.4755 294.581 52.4945 294.783C52.7864 297.596 52.9376 300.231 52.9482 302.69Z" fill="white"/>
<path d="M50.8321 283.95C50.6195 283.977 50.4038 284.005 50.1848 284.026C49.5903 284.085 48.993 284.115 48.3952 284.115C45.848 284.118 43.3324 283.571 41.0338 282.514C40.9006 282.676 40.7673 282.838 40.6309 283.003C43.0488 284.139 45.7046 284.728 48.3952 284.726C49.0333 284.725 49.6709 284.693 50.3054 284.628C50.5212 284.606 50.7369 284.579 50.9495 284.548C52.7044 284.306 54.4108 283.809 56.0105 283.073C55.8741 282.905 55.7408 282.74 55.6107 282.579C54.0967 283.26 52.4865 283.722 50.8321 283.95Z" fill="white"/>
<path d="M52.4278 294.172C52.2088 294.184 51.9899 294.19 51.771 294.19C51.7043 294.193 51.6345 294.193 51.5679 294.193C48.8078 294.193 46.0886 293.551 43.6421 292.321C41.1956 291.091 39.0944 289.31 37.5177 287.129C37.3908 287.309 37.2639 287.49 37.1401 287.673C38.7836 289.879 40.9495 291.677 43.4585 292.917C45.9675 294.157 48.7474 294.804 51.5679 294.804C51.6567 294.804 51.7456 294.804 51.8344 294.801C52.0565 294.798 52.2755 294.792 52.4944 294.783C55.8823 294.616 59.1485 293.513 61.9024 291.606C61.8009 291.426 61.6993 291.246 61.5946 291.066C58.9181 292.938 55.7323 294.017 52.4278 294.172Z" fill="white"/>
<path d="M52.9485 302.69C52.7264 302.708 52.5043 302.72 52.2822 302.729C52.0442 302.739 51.8062 302.745 51.5682 302.745C47.8594 302.741 44.2517 301.58 41.2852 299.437C38.3188 297.295 36.1533 294.285 35.1129 290.858C34.9701 291.106 34.8274 291.35 34.6909 291.597C35.8632 295.016 38.1248 297.992 41.1546 300.103C44.1843 302.214 47.8281 303.352 51.5682 303.356C51.8062 303.356 52.0442 303.353 52.279 303.34C52.5043 303.334 52.7264 303.322 52.9485 303.307C57.4349 302.969 61.6202 301.003 64.657 297.806C64.5903 297.58 64.5142 297.357 64.438 297.131C61.5048 300.352 57.3836 302.345 52.9485 302.69Z" fill="white"/>
<path d="M271.902 233.863C283.68 223.944 288.875 211.115 283.506 205.209C278.137 199.303 264.237 202.557 252.46 212.477C240.682 222.396 235.487 235.225 240.855 241.131C246.224 247.037 260.124 243.783 271.902 233.863Z" fill="#E4E4E4"/>
<path d="M97.8745 241.131C103.243 235.225 98.048 222.396 86.2703 212.477C74.4925 202.557 60.5925 199.303 55.2236 205.209C49.8548 211.115 55.0502 223.944 66.8279 233.863C78.6056 243.783 92.5056 247.036 97.8745 241.131Z" fill="#E4E4E4"/>
<path d="M124.399 320.347C140.049 320.347 152.736 313.985 152.736 306.138C152.736 298.29 140.049 291.929 124.399 291.929C108.749 291.929 96.0625 298.29 96.0625 306.138C96.0625 313.985 108.749 320.347 124.399 320.347Z" fill="#E4E4E4"/>
<path d="M214.331 320.347C229.981 320.347 242.667 313.985 242.667 306.138C242.667 298.29 229.981 291.929 214.331 291.929C198.68 291.929 185.994 298.29 185.994 306.138C185.994 313.985 198.68 320.347 214.331 320.347Z" fill="#E4E4E4"/>
<path d="M169.365 300.748C131.004 300.748 99.7954 270.709 99.7954 233.786C99.7954 196.863 131.004 166.824 169.365 166.824C207.726 166.824 238.934 196.863 238.934 233.786C238.934 270.709 207.726 300.748 169.365 300.748ZM169.365 167.477C131.378 167.477 100.474 197.223 100.474 233.786C100.474 270.349 131.378 300.095 169.365 300.095C207.351 300.095 238.256 270.349 238.256 233.786C238.256 197.223 207.351 167.477 169.365 167.477Z" fill="#3F3D56"/>
<path d="M152.406 278.386C138.371 273.738 126.568 264.342 119.19 251.945C111.813 239.549 109.365 224.996 112.3 210.992C108.406 218.501 106.223 226.724 105.898 235.111C105.573 243.498 107.112 251.855 110.413 259.623C113.715 267.391 118.701 274.39 125.04 280.154C131.379 285.917 138.923 290.31 147.168 293.04C155.413 295.77 164.169 296.774 172.85 295.984C181.531 295.194 189.936 292.628 197.503 288.459C205.071 284.29 211.626 278.613 216.73 271.809C221.834 265.004 225.369 257.229 227.099 249.003C220.462 261.781 209.23 271.805 195.491 277.209C181.752 282.614 166.441 283.032 152.406 278.386Z" fill="#F0F0F0"/>
<path d="M148.875 228.45C145.353 228.45 142.488 224.861 142.488 220.45C142.488 216.039 145.353 212.45 148.875 212.45C152.396 212.45 155.261 216.039 155.261 220.45C155.261 224.861 152.396 228.45 148.875 228.45Z" fill="#3F3D56"/>
<path d="M187.562 228.45C184.04 228.45 181.175 224.861 181.175 220.45C181.175 216.039 184.04 212.45 187.562 212.45C191.084 212.45 193.949 216.039 193.949 220.45C193.949 224.861 191.084 228.45 187.562 228.45Z" fill="#3F3D56"/>
<path d="M164.953 105.741C168.327 105.741 171.062 103.84 171.062 101.495C171.062 99.1495 168.327 97.2483 164.953 97.2483C161.58 97.2483 158.845 99.1495 158.845 101.495C158.845 103.84 161.58 105.741 164.953 105.741Z" fill="#2F2E41"/>
<path d="M164.953 99.19C167.015 99.19 168.686 98.0282 168.686 96.595C168.686 95.1618 167.015 94 164.953 94C162.892 94 161.22 95.1618 161.22 96.595C161.22 98.0282 162.892 99.19 164.953 99.19Z" fill="#2F2E41"/>
<path d="M160.56 103.191C158.459 101.169 157.794 98.4421 158.842 96.6873C158.593 96.8239 158.364 96.9917 158.16 97.1861C156.438 98.8445 156.975 102.05 159.36 104.346C161.746 106.642 165.076 107.159 166.799 105.501C167.001 105.305 167.176 105.085 167.317 104.845C165.494 105.854 162.661 105.214 160.56 103.191Z" fill="#2F2E41"/>
<path d="M102.074 208.297L99.9282 204.866L112.656 195.267L115.823 200.331L102.074 208.297Z" fill="#FFB6B6"/>
<path d="M99.1659 211.174L92.2476 200.111L92.3929 200.027C93.5794 199.339 95.001 199.134 96.3449 199.455C97.6889 199.777 98.8452 200.599 99.5594 201.741L99.5596 201.741L103.785 208.498L99.1659 211.174Z" fill="#2F2E41"/>
<path d="M236.165 203.724L238.31 200.293L225.582 190.694L222.416 195.758L236.165 203.724Z" fill="#FFB6B6"/>
<path d="M234.454 203.925L238.679 197.168L238.679 197.168C239.394 196.026 240.55 195.204 241.894 194.882C243.238 194.561 244.659 194.766 245.846 195.454L245.991 195.538L239.073 206.601L234.454 203.925Z" fill="#2F2E41"/>
<path d="M152.98 157.935L152.17 161.05L130.305 177.898L106.773 199.065L109.297 204.714L165.386 168.581L228.62 200.13L231.445 193.903L202.589 175.285L178.726 159.446L152.98 157.935Z" fill="#2F2E41"/>
<path d="M160.343 124.609L150.893 127.594L152.17 160.729C152.17 160.729 168.606 170.227 178.726 159.445V126.303L173.082 124.609H160.343Z" fill="#191A1B"/>
<path d="M176.628 128.581L178.726 126.303C178.726 126.303 184.558 128.354 184.071 134.507C183.585 140.661 180.157 160.232 180.157 160.232L179.513 172.999H173.424L175.851 139.984L176.628 128.581Z" fill="#191A1B"/>
<path d="M153.551 129.561L151.454 127.283C151.454 127.283 145.622 129.334 146.108 135.487C146.594 141.641 150.022 161.212 150.022 161.212L150.667 173.979H156.755L154.328 140.963L153.551 129.561Z" fill="#191A1B"/>
<path d="M153.754 179.236C155.816 179.236 157.487 177.627 157.487 175.643C157.487 173.659 155.816 172.05 153.754 172.05C151.692 172.05 150.021 173.659 150.021 175.643C150.021 177.627 151.692 179.236 153.754 179.236Z" fill="#FFB6B6"/>
<path d="M176.491 179.236C178.553 179.236 180.224 177.627 180.224 175.643C180.224 173.659 178.553 172.05 176.491 172.05C174.43 172.05 172.758 173.659 172.758 175.643C172.758 177.627 174.43 179.236 176.491 179.236Z" fill="#FFB6B6"/>
<path d="M164.796 121.889C170.505 121.889 175.134 117.433 175.134 111.938C175.134 106.442 170.505 101.987 164.796 101.987C159.086 101.987 154.457 106.442 154.457 111.938C154.457 117.433 159.086 121.889 164.796 121.889Z" fill="#2F2E41"/>
<path d="M165.107 122.217C169.71 122.217 173.442 118.625 173.442 114.194C173.442 109.763 169.71 106.172 165.107 106.172C160.504 106.172 156.772 109.763 156.772 114.194C156.772 118.625 160.504 122.217 165.107 122.217Z" fill="#FFB6B6"/>
<path d="M156.349 109.148C158.253 110.412 160.514 111.084 162.827 111.075C162.002 111.626 161.063 111.998 160.074 112.165C163.149 112.8 166.328 112.818 169.411 112.216C170.096 112.11 170.758 111.892 171.366 111.57C171.669 111.407 171.933 111.184 172.141 110.917C172.349 110.649 172.496 110.343 172.572 110.017C172.777 108.89 171.865 107.867 170.918 107.177C169.467 106.137 167.794 105.421 166.02 105.08C164.246 104.738 162.415 104.781 160.66 105.204C159.515 105.489 158.367 105.971 157.623 106.857C156.878 107.742 156.658 109.108 157.367 110.02L156.349 109.148Z" fill="#2F2E41"/>
<path d="M303.546 321H25.2676C25.1776 321 25.0913 320.966 25.0276 320.904C24.964 320.843 24.9282 320.76 24.9282 320.673C24.9282 320.587 24.964 320.504 25.0276 320.442C25.0913 320.381 25.1776 320.347 25.2676 320.347H303.546C303.636 320.347 303.722 320.381 303.786 320.442C303.849 320.504 303.885 320.587 303.885 320.673C303.885 320.76 303.849 320.843 303.786 320.904C303.722 320.966 303.636 321 303.546 321Z" fill="#3F3D56"/>
<path d="M158.845 259.917C158.845 262.343 159.846 264.669 161.628 266.385C163.41 268.1 165.827 269.063 168.347 269.063C170.867 269.063 173.284 268.1 175.066 266.385C176.848 264.669 177.849 262.343 177.849 259.917H158.845Z" fill="#3F3D56"/>
<path d="M203.342 248.485C207.841 248.485 211.487 244.975 211.487 240.645C211.487 236.316 207.841 232.806 203.342 232.806C198.844 232.806 195.198 236.316 195.198 240.645C195.198 244.975 198.844 248.485 203.342 248.485Z" fill="#F0F0F0"/>
<path d="M133.094 248.485C137.593 248.485 141.239 244.975 141.239 240.645C141.239 236.316 137.593 232.806 133.094 232.806C128.596 232.806 124.95 236.316 124.95 240.645C124.95 244.975 128.596 248.485 133.094 248.485Z" fill="#F0F0F0"/>
</g>
<path d="M93.18 32.44C92.13 32.44 91.2667 32.1367 90.59 31.53C89.9367 30.9 89.61 30.13 89.61 29.22C89.61 28.2867 89.9367 27.5167 90.59 26.91C91.2667 26.28 92.13 25.965 93.18 25.965C94.2067 25.965 95.0467 26.28 95.7 26.91C96.3767 27.5167 96.715 28.2867 96.715 29.22C96.715 30.13 96.3767 30.9 95.7 31.53C95.0467 32.1367 94.2067 32.44 93.18 32.44ZM96.155 34.47V54H90.17V34.47H96.155ZM128.317 29.43V54H122.332V39.265L116.837 54H112.007L106.477 39.23V54H100.492V29.43H107.562L114.457 46.44L121.282 29.43H128.317ZM141.511 54.28C139.598 54.28 137.871 53.8717 136.331 53.055C134.815 52.2383 133.613 51.0717 132.726 49.555C131.863 48.0383 131.431 46.265 131.431 44.235C131.431 42.2283 131.875 40.4667 132.761 38.95C133.648 37.41 134.861 36.2317 136.401 35.415C137.941 34.5983 139.668 34.19 141.581 34.19C143.495 34.19 145.221 34.5983 146.761 35.415C148.301 36.2317 149.515 37.41 150.401 38.95C151.288 40.4667 151.731 42.2283 151.731 44.235C151.731 46.2417 151.276 48.015 150.366 49.555C149.48 51.0717 148.255 52.2383 146.691 53.055C145.151 53.8717 143.425 54.28 141.511 54.28ZM141.511 49.1C142.655 49.1 143.623 48.68 144.416 47.84C145.233 47 145.641 45.7983 145.641 44.235C145.641 42.6717 145.245 41.47 144.451 40.63C143.681 39.79 142.725 39.37 141.581 39.37C140.415 39.37 139.446 39.79 138.676 40.63C137.906 41.4467 137.521 42.6483 137.521 44.235C137.521 45.7983 137.895 47 138.641 47.84C139.411 48.68 140.368 49.1 141.511 49.1ZM162.851 54.28C161.148 54.28 159.631 53.9883 158.301 53.405C156.971 52.8217 155.921 52.0283 155.151 51.025C154.381 49.9983 153.95 48.855 153.856 47.595H159.771C159.841 48.2717 160.156 48.82 160.716 49.24C161.276 49.66 161.965 49.87 162.781 49.87C163.528 49.87 164.1 49.73 164.496 49.45C164.916 49.1467 165.126 48.7617 165.126 48.295C165.126 47.735 164.835 47.3267 164.251 47.07C163.668 46.79 162.723 46.4867 161.416 46.16C160.016 45.8333 158.85 45.495 157.916 45.145C156.983 44.7717 156.178 44.2 155.501 43.43C154.825 42.6367 154.486 41.575 154.486 40.245C154.486 39.125 154.79 38.11 155.396 37.2C156.026 36.2667 156.936 35.5317 158.126 34.995C159.34 34.4583 160.775 34.19 162.431 34.19C164.881 34.19 166.806 34.7967 168.206 36.01C169.63 37.2233 170.446 38.8333 170.656 40.84H165.126C165.033 40.1633 164.73 39.6267 164.216 39.23C163.726 38.8333 163.073 38.635 162.256 38.635C161.556 38.635 161.02 38.775 160.646 39.055C160.273 39.3117 160.086 39.6733 160.086 40.14C160.086 40.7 160.378 41.12 160.961 41.4C161.568 41.68 162.501 41.96 163.761 42.24C165.208 42.6133 166.386 42.9867 167.296 43.36C168.206 43.71 169 44.2933 169.676 45.11C170.376 45.9033 170.738 46.9767 170.761 48.33C170.761 49.4733 170.435 50.5 169.781 51.41C169.151 52.2967 168.23 52.9967 167.016 53.51C165.826 54.0233 164.438 54.28 162.851 54.28ZM194.373 34.47L182.123 63.275H175.683L180.163 53.335L172.218 34.47H178.903L183.418 46.685L187.898 34.47H194.373ZM205.427 54.28C203.514 54.28 201.787 53.8717 200.247 53.055C198.731 52.2383 197.529 51.0717 196.642 49.555C195.779 48.0383 195.347 46.265 195.347 44.235C195.347 42.2283 195.791 40.4667 196.677 38.95C197.564 37.41 198.777 36.2317 200.317 35.415C201.857 34.5983 203.584 34.19 205.497 34.19C207.411 34.19 209.137 34.5983 210.677 35.415C212.217 36.2317 213.431 37.41 214.317 38.95C215.204 40.4667 215.647 42.2283 215.647 44.235C215.647 46.2417 215.192 48.015 214.282 49.555C213.396 51.0717 212.171 52.2383 210.607 53.055C209.067 53.8717 207.341 54.28 205.427 54.28ZM205.427 49.1C206.571 49.1 207.539 48.68 208.332 47.84C209.149 47 209.557 45.7983 209.557 44.235C209.557 42.6717 209.161 41.47 208.367 40.63C207.597 39.79 206.641 39.37 205.497 39.37C204.331 39.37 203.362 39.79 202.592 40.63C201.822 41.4467 201.437 42.6483 201.437 44.235C201.437 45.7983 201.811 47 202.557 47.84C203.327 48.68 204.284 49.1 205.427 49.1ZM230.722 34.26C233.009 34.26 234.829 35.0067 236.182 36.5C237.559 37.97 238.247 40 238.247 42.59V54H232.297V43.395C232.297 42.0883 231.959 41.0733 231.282 40.35C230.606 39.6267 229.696 39.265 228.552 39.265C227.409 39.265 226.499 39.6267 225.822 40.35C225.146 41.0733 224.807 42.0883 224.807 43.395V54H218.822V34.47H224.807V37.06C225.414 36.1967 226.231 35.52 227.257 35.03C228.284 34.5167 229.439 34.26 230.722 34.26Z" fill="white"/>
<defs>
<clipPath id="clip0_168_110">
<rect width="278.957" height="227" fill="white" transform="translate(24.9282 94)"/>
</clipPath>
</defs>
</svg>
