<svg width="1920" height="1014" viewBox="0 0 1920 1014" fill="none" xmlns="http://www.w3.org/2000/svg">
<path d="M142.746 202.61C137.29 174.008 135.002 146.905 136.012 122.849C137.023 98.7928 141.312 78.2546 148.635 62.4068C155.958 46.5591 166.172 35.7122 178.692 30.4854C191.213 25.2587 205.796 25.7544 221.608 31.9444C237.42 38.1344 254.152 49.8973 270.849 66.5616C287.545 83.2259 303.879 104.465 318.918 129.067C333.957 153.669 347.406 181.151 358.498 209.944C369.59 238.738 378.107 268.279 383.563 296.881C384.61 317.392 388.762 338.921 395.782 360.239C402.801 381.558 412.55 402.248 424.471 421.128C436.393 440.008 450.255 456.709 465.264 470.277C480.274 483.845 496.138 494.014 511.95 500.204C527.762 506.394 543.213 508.484 557.421 506.353C571.629 504.223 584.315 497.914 594.755 487.788C605.195 477.662 613.184 463.916 618.267 447.335C623.35 430.754 625.427 411.664 624.379 391.153C622.263 349.729 632.919 314.969 654.004 294.518C675.089 274.067 704.874 269.6 736.809 282.102C768.743 294.603 800.21 323.047 824.287 361.178C848.365 399.308 863.08 444.001 865.196 485.424C869.249 511.207 876.378 537.957 886.173 564.145C895.969 590.334 908.241 615.45 922.288 638.058C936.336 660.666 951.883 680.324 968.043 695.909C984.202 711.495 1000.66 722.702 1016.47 728.892C1032.28 735.082 1047.14 736.133 1060.2 731.985C1073.26 727.838 1084.26 718.572 1092.57 704.718C1100.89 690.864 1106.35 672.692 1108.66 651.241C1110.97 629.79 1110.07 605.479 1106.01 579.696C1101.96 553.913 1101.06 529.602 1103.37 508.151C1105.67 486.7 1111.14 468.528 1119.45 454.674C1136.25 426.695 1163.62 417.999 1195.56 430.5C1227.49 443.001 1261.37 475.675 1289.74 521.334C1318.11 566.993 1338.64 621.897 1346.83 673.968C1348.06 714.03 1361.92 757.417 1385.38 794.585C1408.83 831.753 1439.94 859.657 1471.87 872.158C1503.81 884.659 1533.95 880.734 1555.66 861.245C1577.37 841.757 1588.88 808.301 1587.65 768.239C1586.42 728.177 1597.92 694.722 1619.63 675.233C1641.35 655.745 1671.48 651.819 1703.42 664.321C1735.35 676.822 1766.47 704.726 1789.92 741.893C1813.37 779.061 1827.23 822.449 1828.46 862.511" stroke="#4C75F2" stroke-width="2"/>
<path d="M142.746 188.824C137.29 160.222 135.002 133.119 136.012 109.063C137.023 85.0071 141.312 64.4689 148.635 48.6211C155.958 32.7734 166.172 21.9265 178.692 16.6997C191.213 11.473 205.796 11.9687 221.608 18.1587C237.42 24.3487 254.152 36.1116 270.849 52.7759C287.545 69.4402 303.879 90.6795 318.918 115.281C333.957 139.883 347.406 167.365 358.498 196.159C369.59 224.952 378.107 254.494 383.563 283.096C384.61 303.606 388.762 325.136 395.782 346.454C402.801 367.772 412.55 388.462 424.471 407.342C436.393 426.223 450.255 442.923 465.264 456.491C480.274 470.059 496.138 480.228 511.95 486.418C527.762 492.608 543.213 494.698 557.421 492.568C571.629 490.437 584.315 484.129 594.755 474.002C605.195 463.876 613.184 450.13 618.267 433.549C623.35 416.969 625.427 397.878 624.379 377.367C622.263 335.944 632.919 301.183 654.004 280.732C675.089 260.281 704.874 255.815 736.809 268.316C768.743 280.817 800.21 309.262 824.287 347.392C848.365 385.523 863.08 430.215 865.196 471.639C869.249 497.421 876.378 524.171 886.173 550.36C895.969 576.549 908.241 601.664 922.288 624.272C936.336 646.88 951.883 666.538 968.043 682.123C984.202 697.709 1000.66 708.916 1016.47 715.106C1032.28 721.296 1047.14 722.347 1060.2 718.2C1073.26 714.052 1084.26 704.786 1092.57 690.932C1100.89 677.078 1106.35 658.907 1108.66 637.455C1110.97 616.004 1110.07 591.693 1106.01 565.91C1101.96 540.128 1101.06 515.817 1103.37 494.365C1105.67 472.914 1111.14 454.743 1119.45 440.889C1136.25 412.909 1163.62 404.213 1195.56 416.714C1227.49 429.215 1261.37 461.89 1289.74 507.549C1318.11 553.208 1338.64 608.112 1346.83 660.182C1348.06 700.244 1361.92 743.632 1385.38 780.799C1408.83 817.967 1439.94 845.871 1471.87 858.372C1503.81 870.874 1533.95 866.948 1555.66 847.46C1577.37 827.971 1588.88 794.516 1587.65 754.454C1586.42 714.391 1597.92 680.936 1619.63 661.448C1641.35 641.959 1671.48 638.034 1703.42 650.535C1735.35 663.036 1766.47 690.94 1789.92 728.108C1813.37 765.276 1827.23 808.663 1828.46 848.725" stroke="#FD2424" stroke-width="2"/>
</svg>
