<svg width="382" height="307" viewBox="0 0 382 307" fill="none" xmlns="http://www.w3.org/2000/svg">
<path d="M191.402 261.218C165.52 261.218 140.438 252.208 120.43 235.722C100.423 219.236 86.7275 196.296 81.6781 170.809C76.6287 145.322 80.5375 118.865 92.7386 95.9473C104.94 73.0293 124.678 55.0679 148.59 45.1234C172.503 35.1789 199.11 33.8666 223.878 41.41C248.646 48.9535 270.043 64.886 284.423 86.4929C298.802 108.1 305.275 134.044 302.738 159.905C300.201 185.767 288.812 209.945 270.51 228.32C260.145 238.783 247.817 247.078 234.238 252.725C220.659 258.372 206.1 261.258 191.402 261.218ZM191.402 37.4366C130.189 37.4366 80.3882 87.437 80.3882 148.896C80.3882 210.354 130.189 260.354 191.402 260.354C252.616 260.354 302.417 210.354 302.417 148.896C302.417 87.437 252.616 37.4366 191.402 37.4366Z" fill="#CCCCCC"/>
<path d="M232.943 278.063V164.904H149.057V278.063H232.943Z" fill="#3A4D69"/>
<path d="M247.354 161.449H134.646V206.367H247.354V161.449Z" fill="#3A4D69"/>
<path d="M247.354 211.549H134.646V256.467H247.354V211.549Z" fill="#3A4D69"/>
<path d="M247.354 261.65H134.646V306.568H247.354V261.65Z" fill="#3A4D69"/>
<path d="M247.354 180.494H134.646V187.404H247.354V180.494Z" fill="#FDFDFD"/>
<path d="M247.354 230.595H134.646V237.505H247.354V230.595Z" fill="#FDFDFD"/>
<path d="M247.354 280.696H134.646V287.606H247.354V280.696Z" fill="#FDFDFD"/>
<path d="M225.414 170.519C226.84 170.519 227.995 169.358 227.995 167.927C227.995 166.496 226.84 165.336 225.414 165.336C223.989 165.336 222.833 166.496 222.833 167.927C222.833 169.358 223.989 170.519 225.414 170.519Z" fill="#FDFDFD"/>
<path d="M234.448 170.519C235.874 170.519 237.029 169.358 237.029 167.927C237.029 166.496 235.874 165.336 234.448 165.336C233.023 165.336 231.867 166.496 231.867 167.927C231.867 169.358 233.023 170.519 234.448 170.519Z" fill="#FDFDFD"/>
<path d="M243.482 170.519C244.907 170.519 246.063 169.358 246.063 167.927C246.063 166.496 244.907 165.336 243.482 165.336C242.056 165.336 240.901 166.496 240.901 167.927C240.901 169.358 242.056 170.519 243.482 170.519Z" fill="#FDFDFD"/>
<path d="M225.414 219.756C226.84 219.756 227.995 218.595 227.995 217.164C227.995 215.733 226.84 214.573 225.414 214.573C223.989 214.573 222.833 215.733 222.833 217.164C222.833 218.595 223.989 219.756 225.414 219.756Z" fill="#FDFDFD"/>
<path d="M234.448 219.756C235.874 219.756 237.029 218.595 237.029 217.164C237.029 215.733 235.874 214.573 234.448 214.573C233.023 214.573 231.867 215.733 231.867 217.164C231.867 218.595 233.023 219.756 234.448 219.756Z" fill="#FDFDFD"/>
<path d="M243.482 219.756C244.907 219.756 246.063 218.595 246.063 217.164C246.063 215.733 244.907 214.573 243.482 214.573C242.056 214.573 240.901 215.733 240.901 217.164C240.901 218.595 242.056 219.756 243.482 219.756Z" fill="#FDFDFD"/>
<path d="M225.414 268.993C226.84 268.993 227.995 267.832 227.995 266.401C227.995 264.97 226.84 263.81 225.414 263.81C223.989 263.81 222.833 264.97 222.833 266.401C222.833 267.832 223.989 268.993 225.414 268.993Z" fill="#FDFDFD"/>
<path d="M234.448 268.993C235.874 268.993 237.029 267.832 237.029 266.401C237.029 264.97 235.874 263.81 234.448 263.81C233.023 263.81 231.867 264.97 231.867 266.401C231.867 267.832 233.023 268.993 234.448 268.993Z" fill="#FDFDFD"/>
<path d="M243.482 268.993C244.907 268.993 246.063 267.832 246.063 266.401C246.063 264.97 244.907 263.81 243.482 263.81C242.056 263.81 240.901 264.97 240.901 266.401C240.901 267.832 242.056 268.993 243.482 268.993Z" fill="#FDFDFD"/>
<path d="M382 306.136H0V307H382V306.136Z" fill="white"/>
<path d="M104.051 117.074V197.404C104.051 199.085 103.386 200.696 102.202 201.885C101.019 203.073 99.4136 203.741 97.7397 203.741H66.647C64.9727 203.741 63.3669 203.074 62.1827 201.886C60.9986 200.697 60.3331 199.085 60.3326 197.404V117.074C60.3331 115.393 60.9986 113.781 62.1827 112.592C63.3669 111.404 64.9727 110.737 66.647 110.737H70.4187C70.2335 111.194 70.163 111.69 70.2135 112.181C70.2639 112.672 70.4337 113.143 70.7079 113.553C70.9821 113.963 71.3524 114.298 71.7862 114.531C72.2199 114.763 72.7039 114.885 73.1956 114.886H90.9226C91.4143 114.885 91.8983 114.763 92.3321 114.531C92.7658 114.298 93.1361 113.963 93.4103 113.553C93.6845 113.143 93.8543 112.672 93.9047 112.181C93.9552 111.69 93.8847 111.194 93.6995 110.737H97.7397C99.4136 110.737 101.019 111.405 102.202 112.593C103.386 113.782 104.051 115.393 104.051 117.074Z" fill="#E6E6E6"/>
<path d="M101.98 126.077H62.4037V181.361H101.98V126.077Z" fill="white"/>
<path d="M89.4368 164.092H73.6406V164.998H89.4368V164.092Z" fill="#E6E6E6"/>
<path d="M98.0664 167.419H73.6248V168.326H98.0664V167.419Z" fill="#FDFDFD"/>
<path d="M92.8058 170.554H73.6248V171.461H92.8058V170.554Z" fill="#E6E6E6"/>
<path d="M84.9077 173.689H73.6248V174.596H84.9077V173.689Z" fill="#E6E6E6"/>
<path d="M90.5492 176.824H73.6248V177.731H90.5492V176.824Z" fill="#E6E6E6"/>
<path d="M68.2824 163.831H66.4771V165.644H68.2824V163.831Z" fill="#E6E6E6"/>
<path d="M68.2824 166.966H66.4771V168.779H68.2824V166.966Z" fill="#FDFDFD"/>
<path d="M68.2824 170.101H66.4771V171.914H68.2824V170.101Z" fill="#E6E6E6"/>
<path d="M68.2824 173.236H66.4771V175.049H68.2824V173.236Z" fill="#E6E6E6"/>
<path d="M68.2824 176.371H66.4771V178.184H68.2824V176.371Z" fill="#E6E6E6"/>
<path d="M90.2296 132.987H74.314V148.967H90.2296V132.987Z" fill="#E6E6E6"/>
<path d="M243.91 0.0601959H138.135V68.0742H243.91V0.0601959Z" fill="#E6E6E6"/>
<path d="M233.806 19.0881H146.109V52.3599H233.806V19.0881Z" fill="white"/>
<path d="M183.135 24.8525H162.087V26.06H183.135V24.8525Z" fill="#E6E6E6"/>
<path d="M194.633 29.2862H162.066V30.4937H194.633V29.2862Z" fill="#FDFDFD"/>
<path d="M187.624 33.4634H162.066V34.671H187.624V33.4634Z" fill="#E6E6E6"/>
<path d="M177.1 37.6406H162.066V38.8482H177.1V37.6406Z" fill="#E6E6E6"/>
<path d="M184.617 41.8178H162.066V43.0254H184.617V41.8178Z" fill="#E6E6E6"/>
<path d="M154.948 24.5052H152.542V26.9203H154.948V24.5052Z" fill="#E6E6E6"/>
<path d="M154.948 28.6825H152.542V31.0975H154.948V28.6825Z" fill="#FDFDFD"/>
<path d="M154.948 32.8596H152.542V35.2747H154.948V32.8596Z" fill="#E6E6E6"/>
<path d="M154.948 37.0369H152.542V39.4519H154.948V37.0369Z" fill="#E6E6E6"/>
<path d="M154.948 41.2141H152.542V43.6291H154.948V41.2141Z" fill="#E6E6E6"/>
<path d="M229.503 23.2569H207.969V44.8775H229.503V23.2569Z" fill="#E6E6E6"/>
<path d="M243.865 0H138.09V4.51168H243.865V0Z" fill="#FDFDFD"/>
<path d="M141.43 3.21225C141.928 3.21225 142.332 2.80678 142.332 2.30661C142.332 1.80644 141.928 1.40097 141.43 1.40097C140.931 1.40097 140.528 1.80644 140.528 2.30661C140.528 2.80678 140.931 3.21225 141.43 3.21225Z" fill="white"/>
<path d="M144.591 3.21225C145.089 3.21225 145.493 2.80678 145.493 2.30661C145.493 1.80644 145.089 1.40097 144.591 1.40097C144.093 1.40097 143.689 1.80644 143.689 2.30661C143.689 2.80678 144.093 3.21225 144.591 3.21225Z" fill="white"/>
<path d="M147.752 3.21225C148.25 3.21225 148.654 2.80678 148.654 2.30661C148.654 1.80644 148.25 1.40097 147.752 1.40097C147.254 1.40097 146.85 1.80644 146.85 2.30661C146.85 2.80678 147.254 3.21225 147.752 3.21225Z" fill="white"/>
<path d="M314.74 127.328H288.93V140.717H314.74V127.328Z" fill="#E6E6E6"/>
<path d="M314.74 175.27H288.93V188.659H314.74V175.27Z" fill="#E6E6E6"/>
<path d="M301.835 179.589C313.714 179.589 323.344 169.92 323.344 157.993C323.344 146.067 313.714 136.398 301.835 136.398C289.956 136.398 280.326 146.067 280.326 157.993C280.326 169.92 289.956 179.589 301.835 179.589Z" fill="#E6E6E6"/>
<path d="M301.835 174.838C311.101 174.838 318.612 167.296 318.612 157.993C318.612 148.691 311.101 141.149 301.835 141.149C292.569 141.149 285.058 148.691 285.058 157.993C285.058 167.296 292.569 174.838 301.835 174.838Z" fill="white"/>
<path d="M309.353 153.378H296.341V154.125H309.353V153.378Z" fill="#E2E2E2"/>
<path d="M316.461 156.119H296.328V156.866H316.461V156.119Z" fill="#FDFDFD"/>
<path d="M312.128 158.702H296.328V159.448H312.128V158.702Z" fill="#E2E2E2"/>
<path d="M305.622 161.284H296.328V162.031H305.622V161.284Z" fill="#E2E2E2"/>
<path d="M310.269 163.866H296.328V164.613H310.269V163.866Z" fill="#E2E2E2"/>
<path d="M291.927 153.164H290.44V154.657H291.927V153.164Z" fill="#E2E2E2"/>
<path d="M291.927 155.746H290.44V157.239H291.927V155.746Z" fill="#FDFDFD"/>
<path d="M291.927 158.328H290.44V159.821H291.927V158.328Z" fill="#E2E2E2"/>
<path d="M291.927 160.911H290.44V162.404H291.927V160.911Z" fill="#E2E2E2"/>
<path d="M291.927 163.493H290.44V164.986H291.927V163.493Z" fill="#E2E2E2"/>
</svg>
