<svg width="351" height="293" viewBox="0 0 351 293" fill="none" xmlns="http://www.w3.org/2000/svg">
<g clip-path="url(#clip0_22_21)">
<path d="M64.3422 34.558C63.6842 34.635 63.0501 34.8642 62.4847 35.2293C61.9192 35.5945 61.4361 36.0867 61.0693 36.6714C60.7025 37.2561 60.4611 37.919 60.3619 38.6134C60.2627 39.3079 60.3083 40.0169 60.4953 40.6906L47.4032 50.6166L55.2071 53.8029L66.4432 43.8885C67.4891 43.4801 68.3575 42.6789 68.8838 41.6365C69.4101 40.5942 69.5578 39.3833 69.2988 38.2332C69.0398 37.083 68.3922 36.0737 67.4787 35.3963C66.5651 34.719 65.4491 34.4207 64.3422 34.558L64.3422 34.558Z" fill="#FFB8B8"/>
<path d="M63.1246 49.5091L46.8852 66.8454C44.6596 69.206 41.7249 70.6648 38.591 70.9682L18.5244 72.9108C17.7887 72.9853 17.0465 72.9025 16.3415 72.6674C15.6365 72.4324 14.983 72.0498 14.4198 71.5422C13.6405 70.8502 13.061 69.939 12.7479 68.9133C12.4348 67.8876 12.4008 66.789 12.6497 65.7437C12.8986 64.6983 13.4204 63.7487 14.1552 63.0039C14.8899 62.2591 15.8077 61.7493 16.8033 61.533L37.3036 56.9018L55.9676 42.3049C56.227 42.15 56.5202 42.0697 56.8179 42.072C57.1156 42.0744 57.4076 42.1593 57.6649 42.3183L62.7405 46.7298C63.0459 46.9073 63.2912 47.1818 63.442 47.5148C63.5928 47.8479 63.6416 48.2226 63.5815 48.5865C63.5223 48.9366 63.3628 49.2587 63.1246 49.5091Z" fill="#3A4D69"/>
<path d="M257.825 58.8258C257.946 57.6424 257.721 56.4481 257.179 55.4054C256.638 54.3626 255.808 53.522 254.8 52.9977L153.736 0.589364C153.093 0.255761 152.395 0.0597287 151.681 0.0124661C150.966 -0.0347965 150.251 0.0676323 149.574 0.313906C148.897 0.56018 148.273 0.945477 147.736 1.44779C147.2 1.95011 146.762 2.55961 146.447 3.2415L146.445 3.24552L108.54 85.5309C107.907 86.9092 107.815 88.4974 108.285 89.9473C108.754 91.3973 109.746 92.5906 111.043 93.2657L212.108 145.674C213.407 146.345 214.904 146.443 216.27 145.945C217.637 145.447 218.762 144.394 219.398 143.018L257.304 60.7325C257.581 60.1339 257.757 59.4887 257.825 58.8258Z" fill="#F2F2F2"/>
<path d="M198.618 241.459H67.4814C65.8304 241.457 64.2476 240.76 63.0801 239.522C61.9127 238.283 61.2561 236.604 61.2542 234.852V45.9718C61.2561 44.2201 61.9127 42.5407 63.0801 41.3021C64.2476 40.0635 65.8304 39.3668 67.4814 39.3648H198.618C200.269 39.3668 201.852 40.0635 203.019 41.3021C204.186 42.5407 204.843 44.2201 204.845 45.9718V234.852C204.843 236.604 204.186 238.283 203.019 239.522C201.852 240.76 200.269 241.457 198.618 241.459Z" fill="white"/>
<path d="M102.263 95.6872C106.988 95.6872 110.819 91.6232 110.819 86.6099C110.819 81.5966 106.988 77.5325 102.263 77.5325C97.5381 77.5325 93.7076 81.5966 93.7076 86.6099C93.7076 91.6232 97.5381 95.6872 102.263 95.6872Z" fill="#E6E6E6"/>
<path d="M89.2234 111.419C90.4323 112.148 91.6975 112.767 93.0053 113.268L93.2364 113.353C95.8707 114.335 98.6428 114.834 101.435 114.831C101.996 114.831 102.538 114.81 103.043 114.769C104.273 114.689 105.496 114.51 106.701 114.234C107.362 114.081 108.021 113.898 108.659 113.69C108.813 113.642 108.956 113.594 109.112 113.542C111.711 112.648 114.153 111.306 116.34 109.568C116.165 109.216 115.973 108.874 115.764 108.542C114.64 106.719 113.105 105.222 111.298 104.187C109.491 103.152 107.469 102.612 105.415 102.615H100.912C98.5372 102.615 96.2123 103.34 94.2144 104.703C92.2166 106.065 90.63 108.008 89.6435 110.301C89.4858 110.666 89.3456 111.039 89.2234 111.419Z" fill="#E6E6E6"/>
<path d="M105.166 114.008C104.879 114.031 104.603 114.134 104.365 114.307C105.572 114.227 106.772 114.05 107.954 113.778L105.166 114.008Z" fill="#3A4D69"/>
<path d="M102.782 61.9768C97.2716 61.9774 91.9156 63.9079 87.5452 67.4687C83.1749 71.0294 80.0346 76.0212 78.6119 81.6693C77.1892 87.3174 77.5635 93.3058 79.6769 98.7051C81.7902 104.104 85.5243 108.612 90.2996 111.53C91.5673 112.308 92.8979 112.966 94.2758 113.493L94.5099 113.579C97.1678 114.569 99.9649 115.073 102.782 115.07C103.327 115.07 103.872 115.051 104.407 115.008C105.648 114.927 106.881 114.746 108.095 114.468C108.775 114.31 109.442 114.124 110.072 113.918C110.225 113.871 110.369 113.823 110.527 113.77C116.19 111.813 121.01 107.777 124.119 102.387C127.229 96.9973 128.424 90.6074 127.491 84.3661C126.558 78.1248 123.557 72.4413 119.028 68.3374C114.498 64.2334 108.738 61.9781 102.782 61.9769L102.782 61.9768ZM117.299 108.41C115.141 110.177 112.711 111.536 110.117 112.428C109.978 112.476 109.833 112.523 109.689 112.571C109.09 112.767 108.46 112.939 107.812 113.087C106.662 113.353 105.496 113.526 104.322 113.603C103.813 113.641 103.295 113.66 102.782 113.66C100.115 113.662 97.4679 113.186 94.9512 112.251L94.7307 112.17C93.3602 111.647 92.0394 110.988 90.786 110.201C86.4207 107.475 82.9948 103.334 81.0117 98.3887C79.0287 93.4431 78.593 87.9531 79.7688 82.7253C80.9446 77.4975 83.6697 72.8077 87.5439 69.345C91.418 65.8823 96.2369 63.8293 101.292 63.4877C106.348 63.1461 111.373 64.5339 115.63 67.4471C119.887 70.3604 123.151 74.6455 124.942 79.6728C126.733 84.7001 126.958 90.2044 125.582 95.377C124.206 100.55 121.303 105.118 117.299 108.41V108.41Z" fill="#CCCCCC"/>
<path d="M198.618 241.459H67.4814C65.8304 241.457 64.2476 240.76 63.0801 239.522C61.9127 238.283 61.2561 236.604 61.2542 234.852V45.9718C61.2561 44.2201 61.9127 42.5407 63.0801 41.3021C64.2476 40.0635 65.8304 39.3668 67.4814 39.3648H198.618C200.269 39.3668 201.852 40.0635 203.019 41.3021C204.186 42.5407 204.843 44.2201 204.845 45.9718V234.852C204.843 236.604 204.186 238.283 203.019 239.522C201.852 240.76 200.269 241.457 198.618 241.459ZM67.4814 40.1421C66.0246 40.1439 64.628 40.7586 63.598 41.8515C62.5679 42.9444 61.9885 44.4262 61.9868 45.9718V234.852C61.9885 236.398 62.5679 237.879 63.598 238.972C64.628 240.065 66.0246 240.68 67.4814 240.682H198.618C200.075 240.68 201.471 240.065 202.501 238.972C203.531 237.879 204.111 236.398 204.112 234.852V45.9718C204.111 44.4262 203.531 42.9444 202.501 41.8515C201.471 40.7586 200.075 40.1439 198.618 40.1421L67.4814 40.1421Z" fill="#CCCCCC"/>
<path d="M173.231 88.4208H136.124C135.346 88.4208 134.599 88.0927 134.048 87.5086C133.498 86.9245 133.189 86.1322 133.189 85.3062C133.189 84.4801 133.498 83.6879 134.048 83.1038C134.599 82.5197 135.346 82.1916 136.124 82.1916H173.231C174.01 82.1916 174.757 82.5197 175.307 83.1038C175.858 83.6879 176.167 84.4801 176.167 85.3062C176.167 86.1322 175.858 86.9245 175.307 87.5086C174.757 88.0927 174.01 88.4208 173.231 88.4208Z" fill="#E6E6E6"/>
<path d="M185.341 98.9327H136.124C135.346 98.9327 134.599 98.6045 134.048 98.0204C133.498 97.4363 133.189 96.6441 133.189 95.8181C133.189 94.992 133.498 94.1998 134.048 93.6157C134.599 93.0316 135.346 92.7034 136.124 92.7034H185.341C186.119 92.7034 186.866 93.0316 187.416 93.6157C187.967 94.1998 188.276 94.992 188.276 95.8181C188.276 96.6441 187.967 97.4363 187.416 98.0204C186.866 98.6045 186.119 98.9327 185.341 98.9327Z" fill="#E6E6E6"/>
<path d="M173.177 139.25H80.7585C79.9799 139.25 79.2332 138.922 78.6827 138.338C78.1322 137.754 77.8229 136.961 77.8229 136.135C77.8229 135.309 78.1322 134.517 78.6827 133.933C79.2332 133.349 79.9799 133.021 80.7585 133.021H173.177C173.956 133.021 174.703 133.349 175.253 133.933C175.804 134.517 176.113 135.309 176.113 136.135C176.113 136.961 175.804 137.754 175.253 138.338C174.703 138.922 173.956 139.25 173.177 139.25Z" fill="#E6E6E6"/>
<path d="M185.287 149.762H80.7585C79.9799 149.762 79.2332 149.434 78.6827 148.85C78.1322 148.266 77.8229 147.473 77.8229 146.647C77.8229 145.821 78.1322 145.029 78.6827 144.445C79.2332 143.861 79.9799 143.533 80.7585 143.533H185.287C186.065 143.533 186.812 143.861 187.362 144.445C187.913 145.029 188.222 145.821 188.222 146.647C188.222 147.473 187.913 148.266 187.362 148.85C186.812 149.434 186.065 149.762 185.287 149.762Z" fill="#E6E6E6"/>
<path d="M173.177 173.922H80.7585C79.9799 173.922 79.2332 173.594 78.6827 173.01C78.1322 172.426 77.8229 171.634 77.8229 170.808C77.8229 169.981 78.1322 169.189 78.6827 168.605C79.2332 168.021 79.9799 167.693 80.7585 167.693H173.177C173.956 167.693 174.703 168.021 175.253 168.605C175.804 169.189 176.113 169.981 176.113 170.808C176.113 171.634 175.804 172.426 175.253 173.01C174.703 173.594 173.956 173.922 173.177 173.922Z" fill="#E6E6E6"/>
<path d="M185.287 184.434H80.7585C79.9799 184.434 79.2332 184.106 78.6827 183.522C78.1322 182.938 77.8229 182.145 77.8229 181.319C77.8229 180.493 78.1322 179.701 78.6827 179.117C79.2332 178.533 79.9799 178.205 80.7585 178.205H185.287C186.065 178.205 186.812 178.533 187.362 179.117C187.913 179.701 188.222 180.493 188.222 181.319C188.222 182.145 187.913 182.938 187.362 183.522C186.812 184.106 186.065 184.434 185.287 184.434Z" fill="#E6E6E6"/>
<path d="M173.177 208.594H80.7585C79.9799 208.594 79.2332 208.266 78.6827 207.682C78.1322 207.098 77.8229 206.306 77.8229 205.48C77.8229 204.654 78.1322 203.861 78.6827 203.277C79.2332 202.693 79.9799 202.365 80.7585 202.365H173.177C173.956 202.365 174.703 202.693 175.253 203.277C175.804 203.861 176.113 204.654 176.113 205.48C176.113 206.306 175.804 207.098 175.253 207.682C174.703 208.266 173.956 208.594 173.177 208.594Z" fill="#E6E6E6"/>
<path d="M185.287 219.106H80.7585C79.9799 219.106 79.2332 218.778 78.6827 218.194C78.1322 217.61 77.8229 216.818 77.8229 215.992C77.8229 215.165 78.1322 214.373 78.6827 213.789C79.2332 213.205 79.9799 212.877 80.7585 212.877H185.287C186.065 212.878 186.81 213.207 187.36 213.79C187.91 214.374 188.219 215.166 188.219 215.992C188.219 216.817 187.91 217.609 187.36 218.193C186.81 218.777 186.065 219.105 185.287 219.106Z" fill="#E6E6E6"/>
<path d="M253.322 112.812C253.443 111.629 253.218 110.434 252.676 109.392C252.135 108.349 251.305 107.508 250.297 106.984L149.233 54.5757C148.59 54.2421 147.892 54.0461 147.178 53.9988C146.463 53.9516 145.748 54.054 145.071 54.3003C144.394 54.5465 143.77 54.9318 143.233 55.4341C142.697 55.9365 142.259 56.546 141.944 57.2279L141.943 57.2319L104.037 139.517C103.404 140.896 103.312 142.484 103.782 143.934C104.251 145.384 105.243 146.577 106.54 147.252L207.605 199.66C208.904 200.332 210.401 200.429 211.767 199.931C213.134 199.433 214.259 198.381 214.895 197.004L252.801 114.719C253.078 114.12 253.254 113.475 253.322 112.812Z" fill="white"/>
<path d="M253.322 112.812C253.443 111.629 253.218 110.434 252.676 109.392C252.135 108.349 251.305 107.508 250.297 106.984L149.233 54.5757C148.59 54.2421 147.892 54.0461 147.178 53.9988C146.463 53.9516 145.748 54.054 145.071 54.3003C144.394 54.5465 143.77 54.9318 143.233 55.4341C142.697 55.9365 142.259 56.546 141.944 57.2279L141.943 57.2319L104.037 139.517C103.404 140.896 103.312 142.484 103.782 143.934C104.251 145.384 105.243 146.577 106.54 147.252L207.605 199.66C208.904 200.332 210.401 200.429 211.767 199.931C213.134 199.433 214.259 198.381 214.895 197.004L252.801 114.719C253.078 114.12 253.254 113.475 253.322 112.812ZM214.319 196.706C213.758 197.92 212.765 198.849 211.559 199.288C210.353 199.728 209.033 199.642 207.886 199.049L106.822 146.641C105.677 146.045 104.802 144.992 104.387 143.713C103.973 142.434 104.054 141.032 104.613 139.816L142.519 57.5306C143.08 56.316 144.072 55.3871 145.278 54.9478C146.484 54.5084 147.805 54.5944 148.951 55.187L250.016 107.595C251.161 108.191 252.036 109.244 252.45 110.523C252.864 111.803 252.783 113.204 252.225 114.42L214.319 196.706Z" fill="#3F3D56"/>
<path d="M242.299 116.554L215.831 174.011C215.654 174.395 215.341 174.688 214.961 174.827C214.58 174.966 214.163 174.938 213.802 174.751H213.802L121.87 127.079C121.804 127.045 121.741 127.006 121.682 126.961C121.38 126.744 121.163 126.418 121.069 126.044C120.976 125.67 121.013 125.273 121.173 124.925L147.641 67.4677C147.729 67.2777 147.85 67.1079 148 66.968C148.149 66.828 148.323 66.7206 148.511 66.6518C148.7 66.5831 148.899 66.5545 149.098 66.5675C149.297 66.5805 149.491 66.6349 149.67 66.7277L241.602 114.4C241.964 114.587 242.24 114.919 242.371 115.323C242.502 115.727 242.476 116.169 242.299 116.553V116.553L242.299 116.554Z" fill="#E6E6E6"/>
<path d="M161.589 113.636C168.942 113.636 174.903 107.311 174.903 99.5101C174.903 91.7087 168.942 85.3845 161.589 85.3845C154.237 85.3845 148.276 91.7087 148.276 99.5101C148.276 107.311 154.237 113.636 161.589 113.636Z" fill="#FDFDFD"/>
<path d="M181.083 158.07L122.404 127.641C122.33 127.604 122.26 127.56 122.193 127.509L173.441 90.8973C173.757 90.6675 174.124 90.5307 174.506 90.501C174.888 90.4712 175.27 90.5495 175.614 90.7279C175.958 90.9062 176.252 91.1783 176.464 91.5162C176.676 91.8542 176.801 92.2459 176.824 92.6513L179.682 136.537L179.82 138.637L181.083 158.07Z" fill="#3F3D56"/>
<path opacity="0.2" d="M181.083 158.07L161.049 147.681L177.866 137.624L179.077 136.9L179.682 136.537L179.82 138.637L181.083 158.07Z" fill="black"/>
<path d="M213.755 175.012L163.003 148.694L179.82 138.637L181.031 137.912L202.945 124.806C204.382 123.947 206.44 124.915 206.907 126.558C206.938 126.67 206.962 126.783 206.979 126.898L213.755 175.012Z" fill="#3F3D56"/>
<path d="M57.1599 180.028L62.68 180.027L65.3066 157.435L57.1585 157.436L57.1599 180.028Z" fill="#FFB8B8"/>
<path d="M55.7515 178.115L66.6233 178.115H66.6237C67.5336 178.115 68.4345 178.305 69.2751 178.674C70.1157 179.044 70.8795 179.585 71.5229 180.268C72.1663 180.95 72.6766 181.761 73.0248 182.653C73.373 183.544 73.5522 184.5 73.5522 185.466V185.705L55.7518 185.705L55.7515 178.115Z" fill="#3A4D69"/>
<path d="M14.2501 176.298L19.9697 177.485L27.0069 154.644L18.5657 152.892L14.2501 176.298Z" fill="#FFB8B8"/>
<path d="M13.1566 174.014L24.4204 176.352L24.4208 176.352C25.3635 176.548 26.2606 176.938 27.0609 177.502C27.8613 178.065 28.5491 178.791 29.0853 179.636C29.6214 180.482 29.9954 181.431 30.1857 182.43C30.376 183.429 30.3791 184.458 30.1946 185.458L30.149 185.705L11.7068 181.878L13.1566 174.014Z" fill="#3A4D69"/>
<path d="M65.1913 102.096C65.0044 101.422 64.6806 100.8 64.2425 100.273C63.8045 99.7466 63.263 99.3283 62.6561 99.0477C62.0492 98.7672 61.3918 98.6312 60.73 98.6495C60.0683 98.6677 59.4183 98.8396 58.826 99.1532L47.3191 87.2192L45.7314 95.9296L56.902 105.927C57.4644 106.948 58.3603 107.714 59.4198 108.081C60.4793 108.448 61.6288 108.39 62.6506 107.918C63.6724 107.445 64.4953 106.592 64.9636 105.519C65.4319 104.446 65.5129 103.228 65.1913 102.096Z" fill="#FFB8B8"/>
<path d="M22.4994 40.6698C28.6075 40.6698 33.5591 35.4162 33.5591 28.9356C33.5591 22.455 28.6075 17.2015 22.4994 17.2015C16.3913 17.2015 11.4397 22.455 11.4397 28.9356C11.4397 35.4162 16.3913 40.6698 22.4994 40.6698Z" fill="#FFB8B8"/>
<path d="M20.177 40.8494C20.7646 41.1222 21.968 36.1543 21.4289 35.1607C20.6273 33.6831 20.6747 33.6937 20.1425 32.7161C19.6104 31.7384 19.4913 30.4003 20.1804 29.5401C20.8696 28.6799 22.4643 28.794 22.7788 29.8725C22.5765 27.824 24.4863 26.1773 26.378 25.7146C28.2697 25.2518 30.2651 25.5391 32.1673 25.1273C34.3748 24.6494 36.6716 22.6861 35.7909 20.1106C35.6397 19.6818 35.4134 19.2872 35.124 18.9477C34.1063 17.7337 32.6829 17.2154 31.2911 16.7142C28.3957 15.6715 25.421 14.6157 22.3653 14.7308C19.8475 14.8705 17.4228 15.7859 15.3877 17.3649C13.3526 18.9439 11.7956 21.1182 10.907 23.6215C10.6964 24.2477 10.5333 24.8908 10.4192 25.5446C9.37031 31.5281 12.6453 37.4302 17.9644 39.7087L20.177 40.8494Z" fill="#3A4D69"/>
<path d="M17.4616 105.31C17.1795 105.129 16.9535 104.865 16.8112 104.549C16.669 104.234 16.6168 103.881 16.6611 103.534L11.6705 77.3048L6.61169 57.1748H6.61179C6.05643 54.969 6.22416 52.6284 7.08747 50.5371C7.95078 48.4458 9.45839 46.7279 11.363 45.6652L14.7073 42.3079L22.0031 45.6428L25.4699 49.3828C27.9565 50.6673 30.1622 52.4897 31.9453 54.7327C33.7284 56.9757 35.0495 59.5897 35.8236 62.4067L41.384 82.5942L54.2252 102.864C54.4396 103.202 54.5398 103.606 54.5096 104.012C54.4794 104.418 54.3205 104.802 54.0588 105.1C52.2724 107.138 17.4616 105.31 17.4616 105.31Z" fill="#3A4D69"/>
<path d="M51.1045 103.447L32.1694 89.5249C29.5885 87.6143 27.7202 84.8048 26.8888 81.5846L21.5664 60.9651C21.3682 60.2097 21.3148 59.4199 21.4092 58.6423C21.5037 57.8646 21.7441 57.115 22.1162 56.4376C22.6217 55.5022 23.3655 54.7371 24.2624 54.2302C25.1592 53.7232 26.1726 53.4949 27.1863 53.5715C28.1999 53.6482 29.1726 54.0266 29.9926 54.6634C30.8126 55.3002 31.4467 56.1695 31.822 57.1715L39.7154 77.7723L56.5339 94.707C56.7232 94.9508 56.8491 95.2429 56.8991 95.5543C56.9491 95.8657 56.9216 96.1856 56.8192 96.4822L53.6161 102.558C53.5049 102.908 53.2932 103.212 53.0107 103.428C52.7281 103.644 52.389 103.761 52.0407 103.762C51.7055 103.762 51.3786 103.651 51.1045 103.447Z" fill="#3A4D69"/>
<path d="M11.7669 172.802C11.6121 172.566 11.513 172.295 11.4779 172.01C11.4428 171.726 11.4728 171.436 11.5654 171.166L20.3252 137.38L20.9727 104.274L50.4608 102.128L50.6039 102.118L59.4856 119.197C62.2663 124.537 63.9685 130.433 64.484 136.509L67.4109 170.539C67.4551 171.001 67.3266 171.464 67.0529 171.827C66.7792 172.19 66.3821 172.425 65.9471 172.481L57.0558 173.378C56.6274 173.433 56.1956 173.309 55.8525 173.031C55.5093 172.753 55.282 172.344 55.2191 171.891L51.6086 137.31L38.6178 114.022L34.2572 138.54L25.223 172.398C25.1049 172.736 24.8927 173.027 24.6145 173.234C24.3364 173.441 24.0055 173.554 23.6658 173.557L13.1288 173.561C12.8606 173.563 12.5961 173.494 12.3586 173.362C12.1211 173.229 11.918 173.037 11.7669 172.802Z" fill="#3A4D69"/>
<path d="M237.557 283.923H15.3528C11.4132 283.918 7.63612 282.255 4.85035 279.3C2.06458 276.344 0.497584 272.337 0.493134 268.157V138.685C0.497584 134.505 2.06458 130.498 4.85035 127.542C7.63612 124.587 11.4132 122.924 15.3528 122.919H42.5968C46.2934 122.916 49.8578 124.378 52.5911 127.018L82.1355 149.402C84.0617 151.269 86.5772 152.304 89.1865 152.301H238.936C240.906 152.301 242.856 152.717 244.673 153.523C246.49 154.33 248.138 155.512 249.52 157.001C250.903 158.489 251.993 160.254 252.726 162.194C253.46 164.133 253.823 166.208 253.795 168.298L252.415 268.387C252.342 272.523 250.746 276.464 247.969 279.367C245.193 282.271 241.455 283.906 237.557 283.923Z" fill="white"/>
<path d="M235.583 276.279H16.6674C14.7669 276.276 12.9448 275.474 11.6009 274.048C10.2571 272.623 9.50114 270.689 9.49899 268.673V137.084C9.50115 135.068 10.2571 133.135 11.6009 131.709C12.9448 130.283 14.7669 129.481 16.6674 129.479C18.3484 129.481 19.96 130.19 21.1487 131.451C22.3373 132.712 23.0059 134.422 23.0078 136.206V259.596C23.0098 261.485 23.7183 263.297 24.9777 264.633C26.2372 265.97 27.9448 266.721 29.7259 266.723H234.843C235.862 266.711 236.856 267.062 237.665 267.719C238.474 268.376 239.053 269.302 239.308 270.348C239.594 271.341 239.559 272.406 239.207 273.375C238.855 274.344 238.208 275.159 237.369 275.692C236.836 276.06 236.218 276.263 235.583 276.279Z" fill="#F2F2F2"/>
<path d="M128.117 213.085L127.541 212.473C127.421 212.354 127.351 212.19 127.346 212.017C127.341 211.843 127.4 211.675 127.512 211.548C127.521 211.538 127.531 211.527 127.541 211.518L132.598 206.148C132.653 206.085 132.72 206.034 132.793 205.999C132.867 205.963 132.947 205.944 133.028 205.941C133.109 205.938 133.189 205.952 133.265 205.982C133.341 206.013 133.411 206.058 133.47 206.117C133.479 206.127 133.489 206.137 133.498 206.148L138.555 211.513C138.614 211.573 138.662 211.646 138.694 211.726C138.727 211.806 138.745 211.892 138.746 211.979C138.748 212.066 138.733 212.153 138.703 212.234C138.673 212.315 138.628 212.389 138.571 212.452L138.555 212.468L137.979 213.08C137.922 213.143 137.853 213.193 137.778 213.228C137.703 213.262 137.622 213.281 137.539 213.283C137.457 213.284 137.376 213.268 137.299 213.237C137.223 213.205 137.153 213.157 137.094 213.096L137.078 213.08L134.088 209.736V217.671C134.089 217.758 134.073 217.844 134.043 217.924C134.012 218.004 133.967 218.077 133.909 218.139C133.852 218.2 133.784 218.249 133.709 218.283C133.634 218.317 133.553 218.335 133.471 218.335L133.467 218.335H132.634C132.468 218.335 132.308 218.265 132.191 218.141C132.074 218.016 132.008 217.847 132.008 217.671V209.745L129.018 213.089C128.902 213.216 128.744 213.288 128.578 213.29C128.412 213.292 128.252 213.224 128.133 213.101L128.117 213.085Z" fill="#FDFDFD"/>
<path d="M133.039 201.27C135.069 201.27 137.053 201.908 138.74 203.105C140.428 204.301 141.743 206.002 142.52 207.991C143.297 209.981 143.5 212.17 143.104 214.282C142.708 216.394 141.731 218.334 140.295 219.857C138.86 221.38 137.032 222.417 135.041 222.837C133.05 223.257 130.987 223.041 129.112 222.217C127.237 221.393 125.634 219.997 124.506 218.207C123.379 216.416 122.777 214.311 122.777 212.158C122.779 209.271 123.861 206.503 125.785 204.462C127.709 202.42 130.318 201.272 133.039 201.27ZM133.039 199.837C130.742 199.837 128.497 200.559 126.587 201.913C124.677 203.267 123.189 205.191 122.31 207.443C121.431 209.694 121.201 212.172 121.649 214.562C122.097 216.952 123.203 219.147 124.827 220.87C126.451 222.593 128.521 223.767 130.773 224.242C133.026 224.718 135.361 224.474 137.483 223.541C139.605 222.609 141.419 221.029 142.695 219.003C143.971 216.977 144.652 214.595 144.652 212.158C144.652 208.89 143.428 205.756 141.251 203.445C139.073 201.135 136.119 199.837 133.039 199.837Z" fill="#3F3D56"/>
<path d="M237.557 283.923H15.3528C11.4132 283.918 7.63612 282.255 4.85035 279.3C2.06458 276.344 0.497584 272.337 0.493134 268.157V138.685C0.497584 134.505 2.06458 130.498 4.85035 127.542C7.63612 124.587 11.4132 122.924 15.3528 122.919H42.5968C46.2934 122.916 49.8578 124.378 52.5911 127.018L82.1355 149.402C84.0617 151.269 86.5772 152.304 89.1865 152.301H238.936C240.906 152.301 242.856 152.717 244.673 153.523C246.49 154.33 248.138 155.512 249.52 157.001C250.903 158.489 251.993 160.254 252.726 162.194C253.46 164.133 253.823 166.208 253.795 168.298L252.415 268.387C252.342 272.523 250.746 276.464 247.969 279.367C245.193 282.271 241.455 283.906 237.557 283.923ZM15.3528 123.875C11.6519 123.879 8.10382 125.441 5.48689 128.218C2.86997 130.994 1.39793 134.759 1.39372 138.685V268.157C1.39793 272.083 2.86997 275.848 5.48689 278.624C8.10382 281.401 11.6519 282.963 15.3528 282.967H237.557C241.219 282.951 244.73 281.415 247.338 278.688C249.947 275.96 251.446 272.258 251.514 268.373L252.894 168.284C252.921 166.321 252.58 164.372 251.891 162.55C251.201 160.728 250.178 159.07 248.879 157.671C247.58 156.273 246.032 155.163 244.325 154.405C242.619 153.647 240.787 153.257 238.936 153.257H89.1865C86.362 153.259 83.6382 152.143 81.5486 150.127L52.0042 127.743C49.4343 125.252 46.0781 123.872 42.5968 123.875H15.3528Z" fill="#3F3D56"/>
<path d="M256.388 286.443H250.868L249.142 263.851L256.389 263.852L256.388 286.443Z" fill="#FFB8B8"/>
<path d="M257.796 292.121L239.996 292.12V291.882C239.996 290.916 240.175 289.96 240.523 289.068C240.871 288.177 241.381 287.366 242.025 286.684C242.668 286.001 243.432 285.46 244.273 285.09C245.113 284.721 246.014 284.531 246.924 284.531H246.924L257.796 284.531L257.796 292.121Z" fill="#3A4D69"/>
<path d="M318.078 286.443H312.558L309.932 263.851L318.079 263.852L318.078 286.443Z" fill="#FFB8B8"/>
<path d="M319.486 292.121L301.686 292.12V291.882C301.686 290.916 301.865 289.96 302.213 289.068C302.561 288.177 303.072 287.366 303.715 286.684C304.358 286.001 305.122 285.46 305.963 285.09C306.803 284.721 307.704 284.531 308.614 284.531H308.615L319.486 284.531L319.486 292.121Z" fill="#3A4D69"/>
<path d="M299.926 216.602C300.688 215.655 301.118 214.456 301.142 213.211C301.166 211.966 300.783 210.75 300.058 209.77C299.911 209.582 299.749 209.408 299.575 209.248L303.733 192.961L296.803 195.4L293.917 210.493C293.438 211.424 293.226 212.483 293.308 213.54C293.389 214.597 293.76 215.605 294.375 216.441C294.697 216.892 295.11 217.261 295.584 217.52C296.058 217.778 296.581 217.921 297.114 217.936C297.647 217.952 298.177 217.84 298.664 217.609C299.15 217.378 299.582 217.034 299.926 216.602Z" fill="#FFB8B8"/>
<path d="M299.66 206.583C299.573 206.583 299.486 206.576 299.4 206.563L295.789 205.985C295.508 205.934 295.241 205.818 295.007 205.646C294.772 205.473 294.576 205.249 294.432 204.988C294.119 204.432 294.007 203.775 294.116 203.137L298.621 176.44L295.566 159.288C294.976 155.987 296.496 152.653 299.101 151.533C299.874 151.197 300.715 151.08 301.543 151.193C302.371 151.305 303.158 151.644 303.826 152.175C304.547 152.754 305.144 153.488 305.58 154.328C306.016 155.168 306.281 156.096 306.357 157.052L308.52 178.922L308.494 179.017L301.534 204.935C301.434 205.389 301.196 205.795 300.858 206.093C300.52 206.391 300.099 206.563 299.66 206.583Z" fill="#FDFDFD"/>
<path d="M298.593 142.081C304.701 142.081 309.653 136.827 309.653 130.346C309.653 123.866 304.701 118.612 298.593 118.612C292.485 118.612 287.534 123.866 287.534 130.346C287.534 136.827 292.485 142.081 298.593 142.081Z" fill="#FFB8B8"/>
<path d="M292.931 184.892C292.655 184.892 292.382 184.838 292.125 184.733L274.645 177.599C274.171 177.408 273.773 177.052 273.515 176.59C273.256 176.128 273.153 175.586 273.221 175.054L273.923 169.467C273.507 167.487 273.545 165.429 274.035 163.468C274.524 161.507 275.451 159.699 276.737 158.197L277.163 157.7L282.335 147.694C282.685 147.016 283.158 146.419 283.728 145.936C284.297 145.453 284.95 145.094 285.651 144.881C286.351 144.667 287.084 144.603 287.808 144.692C288.532 144.78 289.232 145.02 289.868 145.397L299.001 150.812C300.204 151.524 301.111 152.687 301.546 154.073C302.775 157.996 302.684 162.25 301.288 166.111L295.035 183.361C294.869 183.81 294.58 184.197 294.205 184.47C293.83 184.743 293.386 184.89 292.931 184.892Z" fill="#FDFDFD"/>
<path d="M247.119 280.896L247.095 280.891C246.797 280.831 246.514 280.706 246.262 280.526C246.01 280.346 245.795 280.114 245.63 279.843C245.465 279.573 245.354 279.27 245.302 278.953C245.25 278.635 245.26 278.31 245.329 277.996L258.725 215.869C260.918 206.021 263.948 196.403 267.777 187.134L273.476 173.348L294.741 183.648L297.778 189.54C300.145 196.102 301.362 203.068 301.369 210.095L322.977 277.282C323.083 277.61 323.12 277.959 323.086 278.303C323.051 278.648 322.947 278.981 322.78 279.278C322.612 279.576 322.385 279.831 322.116 280.027C321.846 280.222 321.539 280.353 321.217 280.41L309.388 280.268C309.276 280.289 309.163 280.299 309.05 280.298C308.602 280.299 308.163 280.156 307.792 279.889C307.421 279.622 307.134 279.243 306.969 278.801L282.268 210.87C282.233 210.78 282.173 210.704 282.095 210.651C282.018 210.598 281.927 210.571 281.835 210.574C281.745 210.576 281.658 210.607 281.585 210.663C281.512 210.719 281.458 210.798 281.429 210.888L257.992 279.157C257.812 279.687 257.461 280.133 257 280.414C256.539 280.695 255.999 280.793 255.476 280.69L247.119 280.896Z" fill="#3A4D69"/>
<path d="M263.291 204.496C263.914 204.26 264.482 203.883 264.953 203.389C265.424 202.896 265.788 202.299 266.018 201.641C266.248 200.982 266.34 200.278 266.286 199.578C266.232 198.878 266.034 198.199 265.706 197.589L276.299 184.737L268.014 183.539L259.225 195.927C258.296 196.579 257.624 197.571 257.338 198.714C257.051 199.856 257.17 201.071 257.671 202.127C258.172 203.183 259.021 204.008 260.056 204.444C261.092 204.881 262.243 204.899 263.291 204.496Z" fill="#FFB8B8"/>
<path d="M268.284 195.442C267.915 195.442 267.552 195.346 267.227 195.162L263.499 193.053C263.226 192.898 262.985 192.685 262.793 192.427C262.601 192.169 262.461 191.872 262.382 191.554C262.303 191.236 262.286 190.904 262.334 190.579C262.381 190.254 262.492 189.943 262.658 189.665L276.425 166.648L278.812 149.279C278.936 148.381 279.23 147.519 279.676 146.745C280.123 145.972 280.713 145.302 281.41 144.777C282.108 144.253 282.898 143.883 283.734 143.692C284.57 143.501 285.434 143.492 286.273 143.665C287.112 143.838 287.91 144.191 288.617 144.7C289.324 145.21 289.927 145.867 290.388 146.631C290.849 147.395 291.159 148.25 291.3 149.145C291.44 150.04 291.408 150.956 291.205 151.837L286.276 173.246L270.037 194.556C269.826 194.834 269.559 195.057 269.255 195.211C268.952 195.364 268.62 195.443 268.284 195.442Z" fill="#FDFDFD"/>
<path d="M288.638 120.665C289.918 116.214 297.309 114.228 303.452 116.075C309.596 117.921 314.009 122.763 315.036 127.497C317.311 137.98 305.445 146.488 307.595 156.972C309.018 163.909 317.248 170.467 326.517 172.051C316.302 174.319 303.834 172.326 294.361 166.911C288.466 163.541 283.519 158.455 283.594 153.326C283.639 150.22 285.502 147.473 287.779 145.101C290.056 142.728 292.782 140.619 294.872 138.142C296.962 135.666 298.41 132.7 297.8 129.556C297.19 126.412 294.091 123.133 289.923 122.219L288.638 120.665Z" fill="#3A4D69"/>
<path d="M350.235 293H178.673C178.553 293 178.439 292.95 178.354 292.86C178.27 292.77 178.223 292.649 178.223 292.522C178.223 292.395 178.27 292.274 178.354 292.184C178.439 292.095 178.553 292.044 178.673 292.044H350.235C350.354 292.044 350.469 292.095 350.553 292.184C350.637 292.274 350.685 292.395 350.685 292.522C350.685 292.649 350.637 292.77 350.553 292.86C350.469 292.95 350.354 293 350.235 293Z" fill="#CCCCCC"/>
</g>
<defs>
<clipPath id="clip0_22_21">
<rect width="350.192" height="293" fill="white" transform="translate(0.493134)"/>
</clipPath>
</defs>
</svg>
