<svg width="398" height="298" viewBox="0 0 398 298" fill="none" xmlns="http://www.w3.org/2000/svg">
<path d="M387.793 270.943C385.985 271.688 384.043 271.875 382.155 271.485C380.267 271.095 378.497 270.141 377.014 268.716C373.239 264.999 372.055 258.878 371.092 253.208L368.243 236.439L374.207 241.255C378.497 244.719 382.882 248.294 385.852 253.311C388.822 258.328 390.117 265.177 387.732 270.606" fill="#E6E6E6"/>
<path d="M386.872 292.413C387.623 285.998 388.396 279.501 387.868 273.018C387.4 267.26 385.902 261.638 382.853 257.026C381.234 254.583 379.265 252.489 377.033 250.84C376.451 250.409 375.916 251.491 376.495 251.92C380.357 254.782 383.344 259.009 385.025 263.991C386.882 269.53 387.181 275.569 386.861 281.454C386.667 285.013 386.257 288.548 385.844 292.08C385.811 292.239 385.832 292.408 385.901 292.55C385.97 292.693 386.083 292.8 386.216 292.849C386.353 292.892 386.498 292.87 386.621 292.788C386.744 292.707 386.834 292.571 386.872 292.412L386.872 292.413Z" fill="#F2F2F2"/>
<path d="M381.469 282.12C380.694 283.503 379.627 284.629 378.373 285.388C377.119 286.147 375.72 286.515 374.309 286.456C370.684 286.254 367.663 283.288 364.943 280.47L356.898 272.139L362.222 271.841C366.052 271.625 369.979 271.424 373.627 272.81C377.274 274.197 380.637 277.528 381.304 281.956" fill="#E6E6E6"/>
<path d="M388.994 296.1C385.38 288.6 381.189 280.265 373.698 277.601C371.616 276.863 369.432 276.598 367.265 276.822C366.582 276.891 366.753 278.126 367.434 278.057C371.067 277.703 374.693 278.828 377.701 281.242C380.596 283.554 382.85 286.767 384.758 290.174C385.927 292.261 386.973 294.437 388.02 296.609C388.355 297.304 389.333 296.802 388.994 296.1Z" fill="#F2F2F2"/>
<path d="M245.316 7.88455H0.104553V144.352H245.316V7.88455Z" fill="#E6E6E6"/>
<path d="M238.305 19.5869H7.11646V133.446H238.305V19.5869Z" fill="white"/>
<path d="M245.212 0H0V12.2178H245.212V0Z" fill="#FDFDFD"/>
<path d="M7.74136 9.44888C8.80771 9.44888 9.67217 8.43502 9.67217 7.18436C9.67217 5.93369 8.80771 4.91983 7.74136 4.91983C6.675 4.91983 5.81055 5.93369 5.81055 7.18436C5.81055 8.43502 6.675 9.44888 7.74136 9.44888Z" fill="white"/>
<path d="M15.0701 9.44888C16.1365 9.44888 17.0009 8.43502 17.0009 7.18436C17.0009 5.93369 16.1365 4.91983 15.0701 4.91983C14.0037 4.91983 13.1393 5.93369 13.1393 7.18436C13.1393 8.43502 14.0037 9.44888 15.0701 9.44888Z" fill="white"/>
<path d="M22.3991 9.44888C23.4655 9.44888 24.3299 8.43502 24.3299 7.18436C24.3299 5.93369 23.4655 4.91983 22.3991 4.91983C21.3328 4.91983 20.4683 5.93369 20.4683 7.18436C20.4683 8.43502 21.3328 9.44888 22.3991 9.44888Z" fill="white"/>
<path d="M226.956 110.386H112.327C112.232 110.386 112.14 110.342 112.073 110.263C112.006 110.184 111.968 110.077 111.968 109.965V45.5277C111.968 45.4161 112.006 45.3091 112.073 45.2302C112.14 45.1513 112.232 45.107 112.327 45.107C112.422 45.107 112.513 45.1513 112.581 45.2302C112.648 45.3091 112.686 45.4161 112.686 45.5277V109.545H226.956C227.051 109.545 227.143 109.589 227.21 109.668C227.277 109.747 227.315 109.854 227.315 109.965C227.315 110.077 227.277 110.184 227.21 110.263C227.143 110.342 227.051 110.386 226.956 110.386V110.386Z" fill="#3A4D69"/>
<path d="M136.818 105.758H126.392C126.11 105.758 125.839 105.626 125.64 105.392C125.44 105.158 125.328 104.84 125.327 104.509V87.6529C125.328 87.3218 125.44 87.0044 125.64 86.7702C125.839 86.5361 126.11 86.4044 126.392 86.4041H136.818C137.101 86.4044 137.371 86.5361 137.571 86.7702C137.77 87.0044 137.883 87.3218 137.883 87.6529V104.509C137.883 104.84 137.77 105.158 137.571 105.392C137.371 105.626 137.101 105.758 136.818 105.758Z" fill="#FDFDFD"/>
<path d="M155.831 105.758H145.405C145.123 105.758 144.852 105.626 144.653 105.392C144.453 105.158 144.341 104.84 144.34 104.509V71.6648C144.341 71.3337 144.453 71.0162 144.653 70.7821C144.852 70.548 145.123 70.4163 145.405 70.4159H155.831C156.114 70.4163 156.384 70.548 156.584 70.7821C156.783 71.0162 156.896 71.3337 156.896 71.6648V104.509C156.896 104.84 156.783 105.158 156.584 105.392C156.384 105.626 156.114 105.758 155.831 105.758Z" fill="#FDFDFD"/>
<path d="M174.844 105.758H164.418C164.136 105.758 163.865 105.626 163.666 105.392C163.466 105.158 163.354 104.84 163.353 104.509V87.6529C163.354 87.3218 163.466 87.0044 163.666 86.7702C163.865 86.5361 164.136 86.4044 164.418 86.4041H174.844C175.127 86.4044 175.397 86.5361 175.597 86.7702C175.797 87.0044 175.909 87.3218 175.909 87.6529V104.509C175.909 104.84 175.797 105.158 175.597 105.392C175.397 105.626 175.127 105.758 174.844 105.758Z" fill="#FDFDFD"/>
<path d="M193.857 105.758H183.431C183.155 105.765 182.888 105.644 182.689 105.42C182.489 105.197 182.373 104.889 182.366 104.566V65.2971C182.373 64.9736 182.489 64.6664 182.689 64.4429C182.888 64.2195 183.155 64.0979 183.431 64.1048H193.857C194.133 64.0979 194.4 64.2195 194.6 64.4429C194.799 64.6664 194.915 64.9736 194.922 65.2971V104.566C194.915 104.889 194.799 105.197 194.6 105.42C194.4 105.644 194.133 105.765 193.857 105.758Z" fill="#FDFDFD"/>
<path d="M212.87 105.758H202.444C202.162 105.758 201.891 105.626 201.692 105.392C201.492 105.158 201.38 104.84 201.38 104.509V53.9937C201.38 53.6626 201.492 53.3452 201.692 53.111C201.891 52.8769 202.162 52.7452 202.444 52.7448H212.87C213.153 52.7452 213.423 52.8769 213.623 53.111C213.823 53.3452 213.935 53.6626 213.935 53.9937V104.509C213.935 104.84 213.823 105.158 213.623 105.392C213.423 105.626 213.153 105.758 212.87 105.758Z" fill="#FDFDFD"/>
<path d="M131.605 81.3552C132.794 81.3552 133.758 80.2249 133.758 78.8307C133.758 77.4365 132.794 76.3063 131.605 76.3063C130.416 76.3063 129.453 77.4365 129.453 78.8307C129.453 80.2249 130.416 81.3552 131.605 81.3552Z" fill="#3A4D69"/>
<path d="M150.618 64.9463C151.807 64.9463 152.771 63.8161 152.771 62.4219C152.771 61.0277 151.807 59.8974 150.618 59.8974C149.43 59.8974 148.466 61.0277 148.466 62.4219C148.466 63.8161 149.43 64.9463 150.618 64.9463Z" fill="#3A4D69"/>
<path d="M169.631 81.3552C170.82 81.3552 171.784 80.2249 171.784 78.8307C171.784 77.4365 170.82 76.3063 169.631 76.3063C168.443 76.3063 167.479 77.4365 167.479 78.8307C167.479 80.2249 168.443 81.3552 169.631 81.3552Z" fill="#3A4D69"/>
<path d="M188.644 56.9522C189.833 56.9522 190.797 55.822 190.797 54.4278C190.797 53.0336 189.833 51.9034 188.644 51.9034C187.456 51.9034 186.492 53.0336 186.492 54.4278C186.492 55.822 187.456 56.9522 188.644 56.9522Z" fill="#3A4D69"/>
<path d="M207.657 47.6959C208.846 47.6959 209.81 46.5657 209.81 45.1715C209.81 43.7773 208.846 42.6471 207.657 42.6471C206.469 42.6471 205.505 43.7773 205.505 45.1715C205.505 46.5657 206.469 47.6959 207.657 47.6959Z" fill="#3A4D69"/>
<path d="M169.677 79.3963L150.618 62.654L131.82 79.1676L131.39 78.4939L150.618 61.6024L169.586 78.2652L188.435 54.0736L188.51 54.0374L207.523 45.0526L207.792 45.8333L188.854 54.7819L169.677 79.3963Z" fill="#3A4D69"/>
<path d="M65.8099 33.5036H33.2499V36.3739H65.8099V33.5036Z" fill="#E6E6E6"/>
<path d="M83.5296 41.9297H33.2499V44.8H83.5296V41.9297Z" fill="#FDFDFD"/>
<path d="M74.7495 49.9545H33.7726V52.8248H74.7495V49.9545Z" fill="#E6E6E6"/>
<path d="M57.1715 58.7596H33.2499V61.6298H57.1715V58.7596Z" fill="#E6E6E6"/>
<path d="M69.3538 67.3602H33.2499V70.2304H69.3538V67.3602Z" fill="#FDFDFD"/>
<path d="M22.3965 32.6007H18.4096V37.2768H22.3965V32.6007Z" fill="#E6E6E6"/>
<path d="M22.3965 41.0269H18.4096V45.7029H22.3965V41.0269Z" fill="#FDFDFD"/>
<path d="M22.3965 49.0516H18.4096V53.7277H22.3965V49.0516Z" fill="#E6E6E6"/>
<path d="M22.3965 57.8567H18.4096V62.5327H22.3965V57.8567Z" fill="#E6E6E6"/>
<path d="M22.3965 66.4573H18.4096V71.1333H22.3965V66.4573Z" fill="#FDFDFD"/>
<path d="M65.8099 76.0146H33.2499V78.8848H65.8099V76.0146Z" fill="#E6E6E6"/>
<path d="M83.5296 84.4407H33.2499V87.311H83.5296V84.4407Z" fill="#FDFDFD"/>
<path d="M74.7495 92.4655H33.7726V95.3357H74.7495V92.4655Z" fill="#E6E6E6"/>
<path d="M57.1715 101.271H33.2499V104.141H57.1715V101.271Z" fill="#E6E6E6"/>
<path d="M69.3538 109.871H33.2499V112.741H69.3538V109.871Z" fill="#E6E6E6"/>
<path d="M22.3965 75.1117H18.4096V79.7877H22.3965V75.1117Z" fill="#E6E6E6"/>
<path d="M22.3965 83.5378H18.4096V88.2138H22.3965V83.5378Z" fill="#FDFDFD"/>
<path d="M22.3965 91.5626H18.4096V96.2386H22.3965V91.5626Z" fill="#E6E6E6"/>
<path d="M22.3965 100.368H18.4096V105.044H22.3965V100.368Z" fill="#E6E6E6"/>
<path d="M22.3965 108.968H18.4096V113.644H22.3965V108.968Z" fill="#E6E6E6"/>
<path d="M297.606 88.0218C298.977 82.8955 302.096 78.1938 306.409 76.4609C310.723 74.7279 318.247 76.3478 320.281 81.1581C323.213 88.0909 321.896 96.5809 320.341 104.108C319.531 104.058 318.713 104.018 317.892 103.982L316.732 99.4457V103.938C310.328 103.706 303.662 103.851 296.991 104.001C296.393 98.672 296.234 93.148 297.606 88.0218Z" fill="#3A4D69"/>
<path d="M356.446 283.358L351.059 286.005L339.788 262.897L347.739 258.989L356.446 283.358Z" fill="#FFB7B7"/>
<path d="M360.008 288.807L342.639 297.344L342.547 297.086C341.796 294.983 341.787 292.616 342.524 290.506C343.26 288.396 344.681 286.716 346.474 285.834L346.475 285.834L357.083 280.62L360.008 288.807Z" fill="#3A4D69"/>
<path d="M277.451 174.199C277.115 173.63 276.889 172.981 276.789 172.298C276.69 171.615 276.719 170.914 276.876 170.246C277.032 169.578 277.311 168.958 277.694 168.43C278.077 167.903 278.553 167.48 279.09 167.191L290.668 126.216L298.422 131.067L284.603 169.818C284.957 170.909 284.957 172.113 284.603 173.204C284.25 174.294 283.568 175.195 282.686 175.735C281.805 176.275 280.785 176.417 279.82 176.134C278.855 175.851 278.012 175.162 277.451 174.199V174.199Z" fill="#FFB7B7"/>
<path d="M291.726 290.704L285.885 290.703L283.107 264.281L291.727 264.282L291.726 290.704Z" fill="#FFB7B7"/>
<path d="M293.215 297.344L274.383 297.343V297.063C274.383 294.783 275.155 292.597 276.53 290.985C277.905 289.372 279.769 288.467 281.713 288.467H281.713L293.216 288.467L293.215 297.344Z" fill="#3A4D69"/>
<path d="M315.143 140.422L316.467 144.457L316.202 148.493L290.793 144.768L291.587 141.353L294.498 137.318L315.143 140.422Z" fill="#FFB7B7"/>
<path d="M306.954 104.106C312.063 104.106 316.205 99.2488 316.205 93.2568C316.205 87.2648 312.063 82.4073 306.954 82.4073C301.845 82.4073 297.704 87.2648 297.704 93.2568C297.704 99.2488 301.845 104.106 306.954 104.106Z" fill="#FFB8B8"/>
<path d="M316.607 144.747L291.411 141.603L290.319 137.416C289.98 136.871 286.782 131.555 287.491 126.241C287.667 124.989 288.06 123.793 288.647 122.727C289.233 121.661 290 120.748 290.901 120.044L297.027 111.631L302.416 107.868L313.04 106.623L313.077 106.632L322.615 109.164L322.499 129.67L316.607 144.747Z" fill="#CCCCCC"/>
<path d="M292.046 146.92L284.987 145.937L285.005 145.677C285.07 144.763 286.614 123.232 288.195 118.287C289.81 113.235 296.806 111.661 297.103 111.597L297.189 111.578L298.744 112.672L294.453 128.398L292.046 146.92Z" fill="#CCCCCC"/>
<path d="M316.467 146.941V153.836C316.467 153.836 323.349 164.325 319.643 172.396C319.643 172.396 327.584 189.78 328.113 195.988L335.524 224.548C335.524 224.548 354.052 246.277 352.463 261.799L353.522 266.766L341.347 272.974L338.7 268.628L318.055 227.031L300.586 189.159L297.41 233.86C297.41 233.86 299.527 268.628 293.704 272.353L293.175 277.941H280.819V272.63C280.819 272.63 276.236 253.728 278.882 239.448L277.824 179.225C277.824 179.225 282.588 153.77 288.411 149.424L290.528 143.216L316.467 146.941Z" fill="#3A4D69"/>
<path d="M307.667 161.198C307.881 161.254 308.09 161.33 308.293 161.425L324.443 148.387L324.073 142.818L331.167 141.065L332.638 150.85C332.757 151.64 332.654 152.455 332.344 153.171C332.035 153.887 331.536 154.466 330.922 154.821L310.918 166.391C310.842 167.376 310.512 168.31 309.973 169.069C309.433 169.828 308.71 170.377 307.898 170.642C307.086 170.907 306.225 170.876 305.428 170.553C304.632 170.23 303.938 169.63 303.44 168.833C302.941 168.036 302.661 167.08 302.637 166.092C302.613 165.105 302.846 164.131 303.305 163.303C303.764 162.474 304.427 161.828 305.206 161.452C305.986 161.076 306.844 160.987 307.667 161.198L307.667 161.198Z" fill="#FFB7B7"/>
<path d="M324.29 149.107L321.003 123.389L318.305 110.103L322.336 109.115C322.446 109.067 325.729 107.766 328.379 109.861C330.286 111.369 331.343 114.232 331.519 118.368L332.587 147.797L324.29 149.107Z" fill="#CCCCCC"/>
<path d="M300.598 79.1288C302.375 77.858 304.411 77.1705 306.493 77.1383C308.574 77.1061 310.625 77.7304 312.431 78.9459C314.236 80.1614 315.73 81.9234 316.756 84.0478C317.782 86.1721 318.302 88.5808 318.263 91.0218C313.092 91.3007 307.66 91.3733 302.153 91.3859L300.851 87.6495L300.083 91.3887C298.405 91.3885 296.724 91.3859 295.039 91.3809C294.97 88.9467 295.448 86.534 296.423 84.3839C297.399 82.2339 298.838 80.4218 300.598 79.1288Z" fill="#3A4D69"/>
<path d="M397.539 298H221.902C221.78 298 221.662 297.943 221.576 297.842C221.489 297.74 221.441 297.603 221.441 297.459C221.441 297.316 221.489 297.178 221.576 297.077C221.662 296.976 221.78 296.919 221.902 296.919H397.539C397.661 296.919 397.778 296.976 397.865 297.077C397.951 297.178 398 297.316 398 297.459C398 297.603 397.951 297.74 397.865 297.842C397.778 297.943 397.661 298 397.539 298Z" fill="#CBCBCB"/>
</svg>
