<svg width="332" height="118" viewBox="0 0 332 118" fill="none" xmlns="http://www.w3.org/2000/svg">
<path d="M24.6831 23.5778C23.7397 20.2494 23.344 17.0954 23.5188 14.296C23.6935 11.4966 24.4352 9.10654 25.7014 7.26233C26.9677 5.41811 28.7338 4.15585 30.8988 3.54761C33.0639 2.93937 35.5855 2.99706 38.3197 3.71739C41.0539 4.43772 43.9471 5.80658 46.8342 7.74582C49.7213 9.68506 52.5458 12.1567 55.1462 15.0196C57.7467 17.8825 60.0723 21.0807 61.9902 24.4314C63.9082 27.7821 65.3809 31.2199 66.3243 34.5483C66.5055 36.9352 67.2235 39.4405 68.4372 41.9213C69.6509 44.4022 71.3366 46.8099 73.3981 49.007C75.4596 51.2041 77.8565 53.1476 80.4519 54.7265C83.0473 56.3054 85.7904 57.4888 88.5246 58.2091C91.2588 58.9295 93.9306 59.1726 96.3873 58.9247C98.8441 58.6768 101.038 57.9427 102.843 56.7643C104.648 55.5859 106.03 53.9862 106.909 52.0567C107.788 50.1272 108.147 47.9056 107.966 45.5188C107.6 40.6983 109.442 36.6532 113.088 34.2733C116.734 31.8933 121.884 31.3736 127.406 32.8284C132.928 34.2832 138.37 37.5933 142.533 42.0305C146.696 46.4678 149.241 51.6688 149.607 56.4892C150.308 59.4896 151.54 62.6024 153.234 65.65C154.928 68.6977 157.05 71.6204 159.479 74.2513C161.908 76.8822 164.596 79.1698 167.391 80.9835C170.185 82.7972 173.03 84.1014 175.765 84.8217C178.499 85.5421 181.068 85.6644 183.326 85.1817C185.584 84.699 187.486 83.6208 188.924 82.0086C190.362 80.3964 191.307 78.2817 191.706 75.7854C192.104 73.2891 191.949 70.46 191.248 67.4597C190.547 64.4593 190.392 61.6302 190.79 59.1339C191.189 56.6376 192.134 54.523 193.572 52.9108C196.476 49.6548 201.209 48.6428 206.731 50.0976C212.253 51.5524 218.111 55.3547 223.017 60.6681C227.923 65.9815 231.474 72.3707 232.889 78.4301C233.102 83.0922 235.499 88.1412 239.554 92.4665C243.609 96.7918 248.99 100.039 254.512 101.494C260.034 102.948 265.245 102.492 268.999 100.224C272.753 97.9559 274.743 94.0627 274.53 89.4006C274.318 84.7385 276.307 80.8453 280.062 78.5774C283.816 76.3095 289.027 75.8527 294.549 77.3075C300.071 78.7623 305.452 82.0095 309.507 86.3347C313.562 90.66 315.959 95.709 316.172 100.371" stroke="#4C75F2" stroke-width="2"/>
<path d="M24.6831 21.9736C23.7397 18.6452 23.344 15.4912 23.5188 12.6918C23.6935 9.89234 24.4352 7.50229 25.7014 5.65808C26.9677 3.81386 28.7338 2.5516 30.8988 1.94336C33.0639 1.33512 35.5855 1.39281 38.3197 2.11314C41.0539 2.83347 43.9471 4.20234 46.8342 6.14157C49.7213 8.08081 52.5458 10.5524 55.1462 13.4154C57.7467 16.2783 60.0723 19.4764 61.9902 22.8271C63.9082 26.1779 65.3809 29.6156 66.3243 32.9441C66.5055 35.3309 67.2235 37.8363 68.4372 40.3171C69.6509 42.7979 71.3366 45.2056 73.3981 47.4027C75.4596 49.5999 77.8565 51.5433 80.4519 53.1223C83.0473 54.7012 85.7904 55.8846 88.5246 56.6049C91.2588 57.3252 93.9306 57.5684 96.3873 57.3205C98.8441 57.0726 101.038 56.3384 102.843 55.16C104.648 53.9816 106.03 52.382 106.909 50.4525C107.788 48.523 108.147 46.3014 107.966 43.9145C107.6 39.094 109.442 35.0489 113.088 32.669C116.734 30.2891 121.884 29.7694 127.406 31.2241C132.928 32.6789 138.37 35.989 142.533 40.4263C146.696 44.8636 149.241 50.0645 149.607 54.885C150.308 57.8853 151.54 60.9982 153.234 64.0458C154.928 67.0934 157.05 70.0161 159.479 72.647C161.908 75.278 164.596 77.5656 167.391 79.3792C170.185 81.1929 173.03 82.4972 175.765 83.2175C178.499 83.9378 181.068 84.0601 183.326 83.5775C185.584 83.0948 187.486 82.0165 188.924 80.4043C190.362 78.7921 191.307 76.6775 191.706 74.1812C192.104 71.6849 191.949 68.8558 191.248 65.8554C190.547 62.8551 190.392 60.026 190.79 57.5297C191.189 55.0334 192.134 52.9188 193.572 51.3065C196.476 48.0505 201.209 47.0386 206.731 48.4934C212.253 49.9481 218.111 53.7505 223.017 59.0638C227.923 64.3772 231.474 70.7664 232.889 76.8259C233.102 81.488 235.499 86.537 239.554 90.8623C243.609 95.1875 248.99 98.4347 254.512 99.8895C260.034 101.344 265.245 100.887 268.999 98.6195C272.753 96.3516 274.743 92.4584 274.53 87.7964C274.318 83.1343 276.307 79.2411 280.062 76.9732C283.816 74.7053 289.027 74.2485 294.549 75.7032C300.071 77.158 305.452 80.4052 309.507 84.7305C313.562 89.0557 315.959 94.1048 316.172 98.7668" stroke="#FD2424" stroke-width="2"/>
</svg>
