<svg width="1920" height="208" viewBox="0 0 1920 208" fill="none" xmlns="http://www.w3.org/2000/svg">
<path d="M1320.87 137C1466.06 76 1561.29 14.5 1482.1 75.5C1378.02 174.833 1411.02 174.833 1581.09 75.5C1726.28 -23.8333 1759.28 -23.8333 1680.09 75.5C1626.67 110.167 1659.67 110.167 1779.08 75.5C1924.27 40.8333 1957.27 40.8333 1878.07 75.5" stroke="#8A8A8A" stroke-opacity="0.49" stroke-width="2"/>
<path d="M0 132.5C145.19 71.5 178.188 71.5 98.9935 132.5C-5.08491 231.833 27.9129 231.833 197.987 132.5C343.177 33.1667 376.175 33.1667 296.98 132.5C243.564 167.167 276.562 167.167 395.974 132.5C541.164 97.8333 574.162 97.8333 494.967 132.5" stroke="#8A8A8A" stroke-opacity="0.49" stroke-width="2"/>
</svg>
