<svg width="114" height="111" viewBox="0 0 114 111" fill="none" xmlns="http://www.w3.org/2000/svg">
<g id="logo">
<g id="Rectangle 93" filter="url(#filter0_d_168_549)">
<rect x="10" y="6" width="94" height="91" rx="12" fill="#313339"/>
</g>
<path id="iM" d="M37.9982 49.775C37.0316 49.775 36.2566 49.5167 35.6732 49C35.0899 48.4833 34.7982 47.8333 34.7982 47.05C34.7982 46.25 35.0899 45.5917 35.6732 45.075C36.2566 44.5417 37.0316 44.275 37.9982 44.275C38.9482 44.275 39.7149 44.5417 40.2982 45.075C40.8816 45.5917 41.1732 46.25 41.1732 47.05C41.1732 47.8333 40.8816 48.4833 40.2982 49C39.7149 49.5167 38.9482 49.775 37.9982 49.775ZM40.7482 50.9V65H35.1982V50.9H40.7482ZM78.0449 36.68V65H69.2049V50.88L64.8449 65H57.2449L52.8849 50.88V65H44.0049V36.68H54.8849L61.1249 53.68L67.2049 36.68H78.0449Z" fill="url(#paint0_linear_168_549)"/>
</g>
<defs>
<filter id="filter0_d_168_549" x="0" y="0" width="114" height="111" filterUnits="userSpaceOnUse" color-interpolation-filters="sRGB">
<feFlood flood-opacity="0" result="BackgroundImageFix"/>
<feColorMatrix in="SourceAlpha" type="matrix" values="0 0 0 0 0 0 0 0 0 0 0 0 0 0 0 0 0 0 127 0" result="hardAlpha"/>
<feOffset dy="4"/>
<feGaussianBlur stdDeviation="5"/>
<feComposite in2="hardAlpha" operator="out"/>
<feColorMatrix type="matrix" values="0 0 0 0 0 0 0 0 0 0 0 0 0 0 0 0 0 0 0.25 0"/>
<feBlend mode="normal" in2="BackgroundImageFix" result="effect1_dropShadow_168_549"/>
<feBlend mode="normal" in="SourceGraphic" in2="effect1_dropShadow_168_549" result="shape"/>
</filter>
<linearGradient id="paint0_linear_168_549" x1="14.5" y1="54" x2="91.5" y2="61" gradientUnits="userSpaceOnUse">
<stop stop-color="#0EFFD4"/>
<stop offset="1" stop-color="#FF0ECA"/>
</linearGradient>
</defs>
</svg>
